<?xml version="1.0" encoding="utf-8"?>
<!DOCTYPE score-partwise  PUBLIC "-//Recordare//DTD MusicXML 4.0 Partwise//EN" "http://www.musicxml.org/dtds/partwise.dtd">
<score-partwise version="4.0">
  <movement-title>Music21 Fragment</movement-title>
  <identification>
    <creator type="composer">Music21</creator>
    <encoding>
      <encoding-date>2026-05-13</encoding-date>
      <software>music21 v.9.9.2</software>
    </encoding>
  </identification>
  <defaults>
    <scaling>
      <millimeters>7</millimeters>
      <tenths>40</tenths>
    </scaling>
  </defaults>
  <part-list>
    <score-part id="Pd6d67ab7d20a846ebd8e0601bdf1b82e">
      <part-name>rh:</part-name>
      <part-abbreviation>Pno</part-abbreviation>
      <score-instrument id="Idb469a7967b76a57db3c4dfab6a9f39a">
        <instrument-name>Piano</instrument-name>
        <instrument-abbreviation>Pno</instrument-abbreviation>
      </score-instrument>
      <score-instrument id="None">
        <instrument-name>acoustic grand</instrument-name>
      </score-instrument>
      <midi-instrument id="Idb469a7967b76a57db3c4dfab6a9f39a">
        <midi-channel>2</midi-channel>
        <midi-program>1</midi-program>
      </midi-instrument>
      <midi-instrument id="None">
        <midi-channel>1</midi-channel>
        <midi-program>1</midi-program>
      </midi-instrument>
    </score-part>
    <score-part id="Pe777ecb1ad6bda5d0da0e7e126b6185c">
      <part-name>lh:</part-name>
      <part-abbreviation>Pno</part-abbreviation>
      <score-instrument id="Id8bbdd1fed78c79c342f2626d9ea5ed6">
        <instrument-name>Piano</instrument-name>
        <instrument-abbreviation>Pno</instrument-abbreviation>
      </score-instrument>
      <score-instrument id="None">
        <instrument-name>acoustic grand</instrument-name>
      </score-instrument>
      <midi-instrument id="Id8bbdd1fed78c79c342f2626d9ea5ed6">
        <midi-channel>4</midi-channel>
        <midi-program>1</midi-program>
      </midi-instrument>
      <midi-instrument id="None">
        <midi-channel>1</midi-channel>
        <midi-program>1</midi-program>
      </midi-instrument>
    </score-part>
  </part-list>
  <!--=========================== Part 1 ===========================-->
  <part id="Pd6d67ab7d20a846ebd8e0601bdf1b82e">
    <!--========================= Measure 1 ==========================-->
    <measure implicit="no" number="1">
      <attributes>
        <divisions>10080</divisions>
        <key>
          <fifths>-5</fifths>
          <mode>major</mode>
        </key>
        <time>
          <beats>4</beats>
          <beat-type>4</beat-type>
        </time>
        <clef>
          <sign>G</sign>
          <line>2</line>
        </clef>
      </attributes>
      <direction>
        <direction-type>
          <metronome parentheses="no">
            <beat-unit>quarter</beat-unit>
            <per-minute>80</per-minute>
          </metronome>
        </direction-type>
        <sound tempo="80" />
      </direction>
      <note dynamics="100.00">
        <pitch>
          <step>F</step>
          <octave>5</octave>
        </pitch>
        <duration>7560</duration>
        <instrument id="Ic6d77140892c810e1d62e9e7309a4583" />
        <type>eighth</type>
        <dot />
        <stem>down</stem>
        <beam number="1">begin</beam>
      </note>
      <note dynamics="100.00">
        <pitch>
          <step>C</step>
          <alter>1</alter>
          <octave>5</octave>
        </pitch>
        <duration>2520</duration>
        <instrument id="Ic6d77140892c810e1d62e9e7309a4583" />
        <type>16th</type>
        <accidental>sharp</accidental>
        <stem>down</stem>
        <beam number="1">end</beam>
        <beam number="2">backward hook</beam>
      </note>
      <note dynamics="100.00">
        <pitch>
          <step>G</step>
          <alter>1</alter>
          <octave>4</octave>
        </pitch>
        <duration>20160</duration>
        <instrument id="Ic6d77140892c810e1d62e9e7309a4583" />
        <type>half</type>
        <accidental>sharp</accidental>
      </note>
      <note dynamics="100.00">
        <pitch>
          <step>B</step>
          <alter>-1</alter>
          <octave>4</octave>
        </pitch>
        <duration>10080</duration>
        <instrument id="Ic6d77140892c810e1d62e9e7309a4583" />
        <type>quarter</type>
      </note>
    </measure>
    <!--========================= Measure 2 ==========================-->
    <measure implicit="no" number="2">
      <note dynamics="100.00">
        <pitch>
          <step>C</step>
          <alter>0</alter>
          <octave>5</octave>
        </pitch>
        <duration>30240</duration>
        <instrument id="Ic6d77140892c810e1d62e9e7309a4583" />
        <type>half</type>
        <dot />
        <accidental>natural</accidental>
      </note>
      <note dynamics="100.00">
        <pitch>
          <step>C</step>
          <alter>1</alter>
          <octave>5</octave>
        </pitch>
        <duration>10080</duration>
        <instrument id="Ic6d77140892c810e1d62e9e7309a4583" />
        <type>quarter</type>
        <accidental>sharp</accidental>
      </note>
    </measure>
    <!--========================= Measure 3 ==========================-->
    <measure implicit="no" number="3">
      <note>
        <pitch>
          <step>E</step>
          <alter>-1</alter>
          <octave>5</octave>
        </pitch>
        <duration>5040</duration>
        <instrument id="Ic6d77140892c810e1d62e9e7309a4583" />
        <voice>1</voice>
        <type>eighth</type>
      </note>
      <note>
        <chord />
        <pitch>
          <step>F</step>
          <alter>1</alter>
          <octave>4</octave>
        </pitch>
        <duration>5040</duration>
        <instrument id="Ic6d77140892c810e1d62e9e7309a4583" />
        <voice>1</voice>
        <type>eighth</type>
        <accidental>sharp</accidental>
      </note>
      <note>
        <rest />
        <duration>2520</duration>
        <voice>1</voice>
        <type>16th</type>
      </note>
      <note>
        <pitch>
          <step>G</step>
          <alter>1</alter>
          <octave>4</octave>
        </pitch>
        <duration>2520</duration>
        <instrument id="Ic6d77140892c810e1d62e9e7309a4583" />
        <voice>1</voice>
        <type>16th</type>
        <accidental>sharp</accidental>
      </note>
      <note>
        <chord />
        <pitch>
          <step>F</step>
          <alter>0</alter>
          <octave>5</octave>
        </pitch>
        <duration>2520</duration>
        <instrument id="Ic6d77140892c810e1d62e9e7309a4583" />
        <voice>1</voice>
        <type>16th</type>
        <accidental>natural</accidental>
      </note>
      <note>
        <pitch>
          <step>F</step>
          <alter>1</alter>
          <octave>5</octave>
        </pitch>
        <duration>20160</duration>
        <instrument id="Ic6d77140892c810e1d62e9e7309a4583" />
        <voice>1</voice>
        <type>half</type>
        <accidental>sharp</accidental>
      </note>
      <note>
        <chord />
        <pitch>
          <step>B</step>
          <alter>-1</alter>
          <octave>4</octave>
        </pitch>
        <duration>20160</duration>
        <instrument id="Ic6d77140892c810e1d62e9e7309a4583" />
        <voice>1</voice>
        <type>half</type>
      </note>
      <note dynamics="100.00">
        <pitch>
          <step>F</step>
          <alter>0</alter>
          <octave>5</octave>
        </pitch>
        <duration>10080</duration>
        <instrument id="Ic6d77140892c810e1d62e9e7309a4583" />
        <voice>1</voice>
        <type>quarter</type>
        <accidental>natural</accidental>
      </note>
      <backup>
        <duration>40320</duration>
      </backup>
      <note dynamics="100.00">
        <pitch>
          <step>C</step>
          <alter>0</alter>
          <octave>4</octave>
        </pitch>
        <duration>30240</duration>
        <instrument id="Ic6d77140892c810e1d62e9e7309a4583" />
        <voice>2</voice>
        <type>half</type>
        <dot />
        <accidental>natural</accidental>
      </note>
      <note>
        <pitch>
          <step>C</step>
          <alter>1</alter>
          <octave>4</octave>
        </pitch>
        <duration>5040</duration>
        <instrument id="Ic6d77140892c810e1d62e9e7309a4583" />
        <voice>2</voice>
        <type>eighth</type>
        <accidental>sharp</accidental>
      </note>
      <note>
        <chord />
        <pitch>
          <step>G</step>
          <alter>1</alter>
          <octave>4</octave>
        </pitch>
        <duration>5040</duration>
        <instrument id="Ic6d77140892c810e1d62e9e7309a4583" />
        <voice>2</voice>
        <type>eighth</type>
        <accidental>sharp</accidental>
      </note>
      <note>
        <rest />
        <duration>5040</duration>
        <voice>2</voice>
        <type>eighth</type>
      </note>
    </measure>
    <!--========================= Measure 4 ==========================-->
    <measure implicit="no" number="4">
      <note dynamics="100.00">
        <pitch>
          <step>F</step>
          <octave>5</octave>
        </pitch>
        <duration>15120</duration>
        <instrument id="Ic6d77140892c810e1d62e9e7309a4583" />
        <voice>1</voice>
        <type>quarter</type>
        <dot />
      </note>
      <note dynamics="100.00">
        <pitch>
          <step>E</step>
          <alter>-1</alter>
          <octave>5</octave>
        </pitch>
        <duration>5040</duration>
        <instrument id="Ic6d77140892c810e1d62e9e7309a4583" />
        <voice>1</voice>
        <type>eighth</type>
      </note>
      <note>
        <pitch>
          <step>F</step>
          <octave>4</octave>
        </pitch>
        <duration>5040</duration>
        <instrument id="Ic6d77140892c810e1d62e9e7309a4583" />
        <voice>1</voice>
        <type>eighth</type>
      </note>
      <note>
        <chord />
        <pitch>
          <step>C</step>
          <alter>1</alter>
          <octave>4</octave>
        </pitch>
        <duration>5040</duration>
        <instrument id="Ic6d77140892c810e1d62e9e7309a4583" />
        <voice>1</voice>
        <type>eighth</type>
        <accidental>sharp</accidental>
      </note>
      <note>
        <rest />
        <duration>5040</duration>
        <voice>1</voice>
        <type>eighth</type>
      </note>
      <note>
        <pitch>
          <step>E</step>
          <alter>-1</alter>
          <octave>5</octave>
        </pitch>
        <duration>2520</duration>
        <instrument id="Ic6d77140892c810e1d62e9e7309a4583" />
        <voice>1</voice>
        <type>16th</type>
        <stem>down</stem>
        <beam number="1">begin</beam>
        <beam number="2">begin</beam>
      </note>
      <note>
        <chord />
        <pitch>
          <step>E</step>
          <alter>-1</alter>
          <octave>5</octave>
        </pitch>
        <duration>2520</duration>
        <instrument id="Ic6d77140892c810e1d62e9e7309a4583" />
        <voice>1</voice>
        <type>16th</type>
      </note>
      <note>
        <pitch>
          <step>E</step>
          <alter>-1</alter>
          <octave>5</octave>
        </pitch>
        <duration>2520</duration>
        <instrument id="Ic6d77140892c810e1d62e9e7309a4583" />
        <voice>1</voice>
        <type>16th</type>
        <stem>down</stem>
        <beam number="1">continue</beam>
        <beam number="2">end</beam>
      </note>
      <note>
        <chord />
        <pitch>
          <step>D</step>
          <alter>0</alter>
          <octave>5</octave>
        </pitch>
        <duration>2520</duration>
        <instrument id="Ic6d77140892c810e1d62e9e7309a4583" />
        <voice>1</voice>
        <type>16th</type>
        <accidental>natural</accidental>
      </note>
      <note>
        <pitch>
          <step>E</step>
          <alter>-1</alter>
          <octave>5</octave>
        </pitch>
        <duration>2520</duration>
        <instrument id="Ic6d77140892c810e1d62e9e7309a4583" />
        <voice>1</voice>
        <type>16th</type>
        <stem>down</stem>
        <beam number="1">continue</beam>
        <beam number="2">begin</beam>
      </note>
      <note>
        <chord />
        <pitch>
          <step>F</step>
          <octave>5</octave>
        </pitch>
        <duration>2520</duration>
        <instrument id="Ic6d77140892c810e1d62e9e7309a4583" />
        <voice>1</voice>
        <type>16th</type>
      </note>
      <note dynamics="100.00">
        <pitch>
          <step>F</step>
          <alter>1</alter>
          <octave>5</octave>
        </pitch>
        <duration>2520</duration>
        <instrument id="Ic6d77140892c810e1d62e9e7309a4583" />
        <voice>1</voice>
        <type>16th</type>
        <accidental>sharp</accidental>
        <stem>down</stem>
        <beam number="1">end</beam>
        <beam number="2">end</beam>
      </note>
      <backup>
        <duration>40320</duration>
      </backup>
      <note dynamics="100.00">
        <pitch>
          <step>G</step>
          <alter>1</alter>
          <octave>4</octave>
        </pitch>
        <duration>5040</duration>
        <instrument id="Ic6d77140892c810e1d62e9e7309a4583" />
        <voice>2</voice>
        <type>eighth</type>
        <accidental>sharp</accidental>
      </note>
      <note>
        <rest />
        <duration>5040</duration>
        <voice>2</voice>
        <type>eighth</type>
      </note>
      <note dynamics="100.00">
        <pitch>
          <step>F</step>
          <alter>1</alter>
          <octave>4</octave>
        </pitch>
        <duration>5040</duration>
        <instrument id="Ic6d77140892c810e1d62e9e7309a4583" />
        <voice>2</voice>
        <type>eighth</type>
        <accidental>sharp</accidental>
      </note>
      <note>
        <rest />
        <duration>5040</duration>
        <voice>2</voice>
        <type>eighth</type>
      </note>
      <note dynamics="100.00">
        <pitch>
          <step>C</step>
          <alter>1</alter>
          <octave>5</octave>
        </pitch>
        <duration>10080</duration>
        <instrument id="Ic6d77140892c810e1d62e9e7309a4583" />
        <voice>2</voice>
        <type>quarter</type>
        <accidental>sharp</accidental>
      </note>
      <note>
        <pitch>
          <step>C</step>
          <alter>0</alter>
          <octave>4</octave>
        </pitch>
        <duration>2520</duration>
        <instrument id="Ic6d77140892c810e1d62e9e7309a4583" />
        <voice>2</voice>
        <type>16th</type>
        <accidental>natural</accidental>
      </note>
      <note>
        <chord />
        <pitch>
          <step>F</step>
          <alter>1</alter>
          <octave>4</octave>
        </pitch>
        <duration>2520</duration>
        <instrument id="Ic6d77140892c810e1d62e9e7309a4583" />
        <voice>2</voice>
        <type>16th</type>
        <accidental>sharp</accidental>
      </note>
      <note>
        <chord />
        <pitch>
          <step>F</step>
          <alter>0</alter>
          <octave>5</octave>
        </pitch>
        <duration>2520</duration>
        <instrument id="Ic6d77140892c810e1d62e9e7309a4583" />
        <voice>2</voice>
        <type>16th</type>
        <accidental>natural</accidental>
      </note>
      <note>
        <rest />
        <duration>7560</duration>
        <voice>2</voice>
        <type>eighth</type>
        <dot />
      </note>
      <backup>
        <duration>40320</duration>
      </backup>
      <note dynamics="100.00">
        <pitch>
          <step>C</step>
          <octave>4</octave>
        </pitch>
        <duration>20160</duration>
        <instrument id="Ic6d77140892c810e1d62e9e7309a4583" />
        <voice>3</voice>
        <type>half</type>
      </note>
      <note>
        <rest />
        <duration>20160</duration>
        <voice>3</voice>
        <type>half</type>
      </note>
    </measure>
    <!--========================= Measure 5 ==========================-->
    <measure implicit="no" number="5">
      <note dynamics="100.00">
        <pitch>
          <step>F</step>
          <octave>5</octave>
        </pitch>
        <duration>7560</duration>
        <instrument id="Ic6d77140892c810e1d62e9e7309a4583" />
        <type>eighth</type>
        <dot />
        <stem>down</stem>
        <beam number="1">begin</beam>
      </note>
      <note dynamics="100.00">
        <pitch>
          <step>C</step>
          <alter>1</alter>
          <octave>5</octave>
        </pitch>
        <duration>2520</duration>
        <instrument id="Ic6d77140892c810e1d62e9e7309a4583" />
        <type>16th</type>
        <accidental>sharp</accidental>
        <stem>down</stem>
        <beam number="1">end</beam>
        <beam number="2">backward hook</beam>
      </note>
      <note dynamics="100.00">
        <pitch>
          <step>G</step>
          <alter>1</alter>
          <octave>4</octave>
        </pitch>
        <duration>20160</duration>
        <instrument id="Ic6d77140892c810e1d62e9e7309a4583" />
        <type>half</type>
        <accidental>sharp</accidental>
      </note>
      <note dynamics="100.00">
        <pitch>
          <step>B</step>
          <alter>-1</alter>
          <octave>4</octave>
        </pitch>
        <duration>10080</duration>
        <instrument id="Ic6d77140892c810e1d62e9e7309a4583" />
        <type>quarter</type>
      </note>
    </measure>
    <!--========================= Measure 6 ==========================-->
    <measure implicit="no" number="6">
      <note dynamics="100.00">
        <pitch>
          <step>C</step>
          <alter>0</alter>
          <octave>5</octave>
        </pitch>
        <duration>30240</duration>
        <instrument id="Ic6d77140892c810e1d62e9e7309a4583" />
        <type>half</type>
        <dot />
        <accidental>natural</accidental>
      </note>
      <note dynamics="100.00">
        <pitch>
          <step>C</step>
          <alter>1</alter>
          <octave>5</octave>
        </pitch>
        <duration>10080</duration>
        <instrument id="Ic6d77140892c810e1d62e9e7309a4583" />
        <type>quarter</type>
        <accidental>sharp</accidental>
      </note>
    </measure>
    <!--========================= Measure 7 ==========================-->
    <measure implicit="no" number="7">
      <note>
        <pitch>
          <step>E</step>
          <alter>-1</alter>
          <octave>5</octave>
        </pitch>
        <duration>5040</duration>
        <instrument id="Ic6d77140892c810e1d62e9e7309a4583" />
        <voice>1</voice>
        <type>eighth</type>
      </note>
      <note>
        <chord />
        <pitch>
          <step>F</step>
          <alter>1</alter>
          <octave>4</octave>
        </pitch>
        <duration>5040</duration>
        <instrument id="Ic6d77140892c810e1d62e9e7309a4583" />
        <voice>1</voice>
        <type>eighth</type>
        <accidental>sharp</accidental>
      </note>
      <note>
        <rest />
        <duration>2520</duration>
        <voice>1</voice>
        <type>16th</type>
      </note>
      <note>
        <pitch>
          <step>F</step>
          <alter>0</alter>
          <octave>5</octave>
        </pitch>
        <duration>2520</duration>
        <instrument id="Ic6d77140892c810e1d62e9e7309a4583" />
        <voice>1</voice>
        <type>16th</type>
        <accidental>natural</accidental>
      </note>
      <note>
        <chord />
        <pitch>
          <step>G</step>
          <alter>1</alter>
          <octave>4</octave>
        </pitch>
        <duration>2520</duration>
        <instrument id="Ic6d77140892c810e1d62e9e7309a4583" />
        <voice>1</voice>
        <type>16th</type>
        <accidental>sharp</accidental>
      </note>
      <note>
        <pitch>
          <step>F</step>
          <alter>1</alter>
          <octave>5</octave>
        </pitch>
        <duration>20160</duration>
        <instrument id="Ic6d77140892c810e1d62e9e7309a4583" />
        <voice>1</voice>
        <type>half</type>
        <accidental>sharp</accidental>
      </note>
      <note>
        <chord />
        <pitch>
          <step>B</step>
          <alter>-1</alter>
          <octave>4</octave>
        </pitch>
        <duration>20160</duration>
        <instrument id="Ic6d77140892c810e1d62e9e7309a4583" />
        <voice>1</voice>
        <type>half</type>
      </note>
      <note dynamics="100.00">
        <pitch>
          <step>F</step>
          <alter>0</alter>
          <octave>5</octave>
        </pitch>
        <duration>10080</duration>
        <instrument id="Ic6d77140892c810e1d62e9e7309a4583" />
        <voice>1</voice>
        <type>quarter</type>
        <accidental>natural</accidental>
      </note>
      <backup>
        <duration>40320</duration>
      </backup>
      <note dynamics="100.00">
        <pitch>
          <step>C</step>
          <alter>0</alter>
          <octave>4</octave>
        </pitch>
        <duration>30240</duration>
        <instrument id="Ic6d77140892c810e1d62e9e7309a4583" />
        <voice>2</voice>
        <type>half</type>
        <dot />
        <accidental>natural</accidental>
      </note>
      <note>
        <pitch>
          <step>C</step>
          <alter>1</alter>
          <octave>4</octave>
        </pitch>
        <duration>5040</duration>
        <instrument id="Ic6d77140892c810e1d62e9e7309a4583" />
        <voice>2</voice>
        <type>eighth</type>
        <accidental>sharp</accidental>
      </note>
      <note>
        <chord />
        <pitch>
          <step>G</step>
          <alter>1</alter>
          <octave>4</octave>
        </pitch>
        <duration>5040</duration>
        <instrument id="Ic6d77140892c810e1d62e9e7309a4583" />
        <voice>2</voice>
        <type>eighth</type>
        <accidental>sharp</accidental>
      </note>
      <note>
        <rest />
        <duration>5040</duration>
        <voice>2</voice>
        <type>eighth</type>
      </note>
    </measure>
    <!--========================= Measure 8 ==========================-->
    <measure implicit="no" number="8">
      <note dynamics="100.00">
        <pitch>
          <step>C</step>
          <alter>0</alter>
          <octave>4</octave>
        </pitch>
        <duration>20160</duration>
        <instrument id="Ic6d77140892c810e1d62e9e7309a4583" />
        <voice>1</voice>
        <type>half</type>
        <accidental>natural</accidental>
      </note>
      <note dynamics="100.00">
        <pitch>
          <step>C</step>
          <alter>1</alter>
          <octave>5</octave>
        </pitch>
        <duration>10080</duration>
        <instrument id="Ic6d77140892c810e1d62e9e7309a4583" />
        <voice>1</voice>
        <type>quarter</type>
        <accidental>sharp</accidental>
      </note>
      <note dynamics="100.00">
        <pitch>
          <step>C</step>
          <alter>0</alter>
          <octave>5</octave>
        </pitch>
        <duration>5040</duration>
        <instrument id="Ic6d77140892c810e1d62e9e7309a4583" />
        <voice>1</voice>
        <type>eighth</type>
        <accidental>natural</accidental>
        <stem>down</stem>
        <beam number="1">begin</beam>
      </note>
      <note dynamics="100.00">
        <pitch>
          <step>C</step>
          <alter>1</alter>
          <octave>5</octave>
        </pitch>
        <duration>5040</duration>
        <instrument id="Ic6d77140892c810e1d62e9e7309a4583" />
        <voice>1</voice>
        <type>eighth</type>
        <accidental>sharp</accidental>
        <stem>down</stem>
        <beam number="1">end</beam>
      </note>
      <backup>
        <duration>40320</duration>
      </backup>
      <note dynamics="100.00">
        <pitch>
          <step>G</step>
          <alter>1</alter>
          <octave>4</octave>
        </pitch>
        <duration>5040</duration>
        <instrument id="Ic6d77140892c810e1d62e9e7309a4583" />
        <voice>2</voice>
        <type>eighth</type>
        <accidental>sharp</accidental>
      </note>
      <note>
        <rest />
        <duration>5040</duration>
        <voice>2</voice>
        <type>eighth</type>
      </note>
      <note dynamics="100.00">
        <pitch>
          <step>E</step>
          <alter>-1</alter>
          <octave>4</octave>
        </pitch>
        <duration>5040</duration>
        <instrument id="Ic6d77140892c810e1d62e9e7309a4583" />
        <voice>2</voice>
        <type>eighth</type>
        <stem>up</stem>
        <beam number="1">begin</beam>
      </note>
      <note dynamics="100.00">
        <pitch>
          <step>E</step>
          <alter>-1</alter>
          <octave>5</octave>
        </pitch>
        <duration>5040</duration>
        <instrument id="Ic6d77140892c810e1d62e9e7309a4583" />
        <voice>2</voice>
        <type>eighth</type>
        <stem>up</stem>
        <beam number="1">end</beam>
      </note>
      <note>
        <rest />
        <duration>20160</duration>
        <voice>2</voice>
        <type>half</type>
      </note>
      <backup>
        <duration>40320</duration>
      </backup>
      <note dynamics="100.00">
        <pitch>
          <step>F</step>
          <octave>5</octave>
        </pitch>
        <duration>15120</duration>
        <instrument id="Ic6d77140892c810e1d62e9e7309a4583" />
        <voice>3</voice>
        <type>quarter</type>
        <dot />
      </note>
      <note>
        <rest />
        <duration>20160</duration>
        <voice>3</voice>
        <type>half</type>
      </note>
      <note>
        <rest />
        <duration>5040</duration>
        <voice>3</voice>
        <type>eighth</type>
      </note>
    </measure>
  </part>
  <!--=========================== Part 2 ===========================-->
  <part id="Pe777ecb1ad6bda5d0da0e7e126b6185c">
    <!--========================= Measure 1 ==========================-->
    <measure implicit="no" number="1">
      <attributes>
        <divisions>10080</divisions>
        <key>
          <fifths>-5</fifths>
          <mode>major</mode>
        </key>
        <time>
          <beats>4</beats>
          <beat-type>4</beat-type>
        </time>
        <clef>
          <sign>F</sign>
          <line>4</line>
        </clef>
      </attributes>
      <direction>
        <direction-type>
          <words />
        </direction-type>
        <sound tempo="80" />
      </direction>
      <note dynamics="100.00">
        <pitch>
          <step>C</step>
          <alter>1</alter>
          <octave>3</octave>
        </pitch>
        <duration>5040</duration>
        <instrument id="I9d573450dc0fb14b5411876f11e6ba0e" />
        <voice>1</voice>
        <type>eighth</type>
        <accidental>sharp</accidental>
        <stem>down</stem>
        <beam number="1">begin</beam>
      </note>
      <note dynamics="100.00">
        <pitch>
          <step>G</step>
          <alter>1</alter>
          <octave>3</octave>
        </pitch>
        <duration>5040</duration>
        <instrument id="I9d573450dc0fb14b5411876f11e6ba0e" />
        <voice>1</voice>
        <type>eighth</type>
        <accidental>sharp</accidental>
        <stem>down</stem>
        <beam number="1">end</beam>
      </note>
      <note>
        <pitch>
          <step>C</step>
          <alter>1</alter>
          <octave>4</octave>
        </pitch>
        <duration>20160</duration>
        <instrument id="I9d573450dc0fb14b5411876f11e6ba0e" />
        <voice>1</voice>
        <type>half</type>
        <accidental>sharp</accidental>
      </note>
      <note>
        <chord />
        <pitch>
          <step>F</step>
          <octave>4</octave>
        </pitch>
        <duration>20160</duration>
        <instrument id="I9d573450dc0fb14b5411876f11e6ba0e" />
        <voice>1</voice>
        <type>half</type>
      </note>
      <note>
        <pitch>
          <step>C</step>
          <alter>1</alter>
          <octave>4</octave>
        </pitch>
        <duration>5040</duration>
        <instrument id="I9d573450dc0fb14b5411876f11e6ba0e" />
        <voice>1</voice>
        <type>eighth</type>
        <accidental>sharp</accidental>
        <stem>down</stem>
        <beam number="1">begin</beam>
      </note>
      <note>
        <chord />
        <pitch>
          <step>F</step>
          <octave>4</octave>
        </pitch>
        <duration>5040</duration>
        <instrument id="I9d573450dc0fb14b5411876f11e6ba0e" />
        <voice>1</voice>
        <type>eighth</type>
      </note>
      <note dynamics="100.00">
        <pitch>
          <step>G</step>
          <alter>1</alter>
          <octave>3</octave>
        </pitch>
        <duration>5040</duration>
        <instrument id="I9d573450dc0fb14b5411876f11e6ba0e" />
        <voice>1</voice>
        <type>eighth</type>
        <accidental>sharp</accidental>
        <stem>down</stem>
        <beam number="1">end</beam>
      </note>
      <backup>
        <duration>40320</duration>
      </backup>
      <note>
        <rest />
        <duration>15120</duration>
        <voice>2</voice>
        <type>quarter</type>
        <dot />
      </note>
      <note dynamics="100.00">
        <pitch>
          <step>G</step>
          <alter>1</alter>
          <octave>3</octave>
        </pitch>
        <duration>5040</duration>
        <instrument id="I9d573450dc0fb14b5411876f11e6ba0e" />
        <voice>2</voice>
        <type>eighth</type>
      </note>
      <note dynamics="100.00">
        <pitch>
          <step>G</step>
          <alter>1</alter>
          <octave>3</octave>
        </pitch>
        <duration>5040</duration>
        <instrument id="I9d573450dc0fb14b5411876f11e6ba0e" />
        <voice>2</voice>
        <type>eighth</type>
        <stem>down</stem>
        <beam number="1">begin</beam>
      </note>
      <note dynamics="100.00">
        <pitch>
          <step>G</step>
          <alter>1</alter>
          <octave>3</octave>
        </pitch>
        <duration>5040</duration>
        <instrument id="I9d573450dc0fb14b5411876f11e6ba0e" />
        <voice>2</voice>
        <type>eighth</type>
        <stem>down</stem>
        <beam number="1">end</beam>
      </note>
      <note>
        <rest />
        <duration>10080</duration>
        <voice>2</voice>
        <type>quarter</type>
      </note>
    </measure>
    <!--========================= Measure 2 ==========================-->
    <measure implicit="no" number="2">
      <note>
        <pitch>
          <step>E</step>
          <alter>-1</alter>
          <octave>4</octave>
        </pitch>
        <duration>30240</duration>
        <instrument id="I9d573450dc0fb14b5411876f11e6ba0e" />
        <voice>1</voice>
        <type>half</type>
        <dot />
      </note>
      <note>
        <chord />
        <pitch>
          <step>F</step>
          <alter>1</alter>
          <octave>4</octave>
        </pitch>
        <duration>30240</duration>
        <instrument id="I9d573450dc0fb14b5411876f11e6ba0e" />
        <voice>1</voice>
        <type>half</type>
        <dot />
        <accidental>sharp</accidental>
      </note>
      <note>
        <pitch>
          <step>C</step>
          <alter>1</alter>
          <octave>4</octave>
        </pitch>
        <duration>5040</duration>
        <instrument id="I9d573450dc0fb14b5411876f11e6ba0e" />
        <voice>1</voice>
        <type>eighth</type>
        <accidental>sharp</accidental>
        <stem>down</stem>
        <beam number="1">begin</beam>
      </note>
      <note>
        <chord />
        <pitch>
          <step>F</step>
          <alter>0</alter>
          <octave>4</octave>
        </pitch>
        <duration>5040</duration>
        <instrument id="I9d573450dc0fb14b5411876f11e6ba0e" />
        <voice>1</voice>
        <type>eighth</type>
        <accidental>natural</accidental>
      </note>
      <note dynamics="100.00">
        <pitch>
          <step>G</step>
          <alter>1</alter>
          <octave>3</octave>
        </pitch>
        <duration>5040</duration>
        <instrument id="I9d573450dc0fb14b5411876f11e6ba0e" />
        <voice>1</voice>
        <type>eighth</type>
        <accidental>sharp</accidental>
        <stem>down</stem>
        <beam number="1">end</beam>
      </note>
      <backup>
        <duration>40320</duration>
      </backup>
      <note>
        <rest />
        <duration>5040</duration>
        <voice>2</voice>
        <type>eighth</type>
      </note>
      <note dynamics="100.00">
        <pitch>
          <step>G</step>
          <alter>1</alter>
          <octave>3</octave>
        </pitch>
        <duration>5040</duration>
        <instrument id="I9d573450dc0fb14b5411876f11e6ba0e" />
        <voice>2</voice>
        <type>eighth</type>
      </note>
      <note dynamics="100.00">
        <pitch>
          <step>G</step>
          <alter>1</alter>
          <octave>3</octave>
        </pitch>
        <duration>5040</duration>
        <instrument id="I9d573450dc0fb14b5411876f11e6ba0e" />
        <voice>2</voice>
        <type>eighth</type>
        <stem>down</stem>
        <beam number="1">begin</beam>
      </note>
      <note dynamics="100.00">
        <pitch>
          <step>G</step>
          <alter>1</alter>
          <octave>3</octave>
        </pitch>
        <duration>5040</duration>
        <instrument id="I9d573450dc0fb14b5411876f11e6ba0e" />
        <voice>2</voice>
        <type>eighth</type>
        <stem>down</stem>
        <beam number="1">end</beam>
      </note>
      <note dynamics="100.00">
        <pitch>
          <step>B</step>
          <alter>-1</alter>
          <octave>3</octave>
        </pitch>
        <duration>5040</duration>
        <instrument id="I9d573450dc0fb14b5411876f11e6ba0e" />
        <voice>2</voice>
        <type>eighth</type>
        <stem>down</stem>
        <beam number="1">begin</beam>
      </note>
      <note dynamics="100.00">
        <pitch>
          <step>G</step>
          <alter>1</alter>
          <octave>3</octave>
        </pitch>
        <duration>5040</duration>
        <instrument id="I9d573450dc0fb14b5411876f11e6ba0e" />
        <voice>2</voice>
        <type>eighth</type>
        <accidental>sharp</accidental>
        <stem>down</stem>
        <beam number="1">end</beam>
      </note>
      <note>
        <rest />
        <duration>10080</duration>
        <voice>2</voice>
        <type>quarter</type>
      </note>
    </measure>
    <!--========================= Measure 3 ==========================-->
    <measure implicit="no" number="3">
      <note>
        <rest />
        <duration>5040</duration>
        <type>eighth</type>
      </note>
      <note dynamics="100.00">
        <pitch>
          <step>G</step>
          <alter>1</alter>
          <octave>3</octave>
        </pitch>
        <duration>10080</duration>
        <instrument id="I9d573450dc0fb14b5411876f11e6ba0e" />
        <type>quarter</type>
        <accidental>sharp</accidental>
      </note>
      <note dynamics="100.00">
        <pitch>
          <step>G</step>
          <alter>1</alter>
          <octave>3</octave>
        </pitch>
        <duration>5040</duration>
        <instrument id="I9d573450dc0fb14b5411876f11e6ba0e" />
        <type>eighth</type>
      </note>
      <note dynamics="100.00">
        <pitch>
          <step>G</step>
          <alter>1</alter>
          <octave>3</octave>
        </pitch>
        <duration>5040</duration>
        <instrument id="I9d573450dc0fb14b5411876f11e6ba0e" />
        <type>eighth</type>
      </note>
      <note dynamics="100.00">
        <pitch>
          <step>G</step>
          <alter>1</alter>
          <octave>3</octave>
        </pitch>
        <duration>10080</duration>
        <instrument id="I9d573450dc0fb14b5411876f11e6ba0e" />
        <type>quarter</type>
      </note>
      <note dynamics="100.00">
        <pitch>
          <step>G</step>
          <alter>1</alter>
          <octave>3</octave>
        </pitch>
        <duration>5040</duration>
        <instrument id="I9d573450dc0fb14b5411876f11e6ba0e" />
        <type>eighth</type>
      </note>
    </measure>
    <!--========================= Measure 4 ==========================-->
    <measure implicit="no" number="4">
      <note>
        <rest />
        <duration>5040</duration>
        <type>eighth</type>
      </note>
      <note dynamics="100.00">
        <pitch>
          <step>G</step>
          <alter>1</alter>
          <octave>3</octave>
        </pitch>
        <duration>5040</duration>
        <instrument id="I9d573450dc0fb14b5411876f11e6ba0e" />
        <type>eighth</type>
        <accidental>sharp</accidental>
      </note>
      <note>
        <rest />
        <duration>5040</duration>
        <type>eighth</type>
      </note>
      <note dynamics="100.00">
        <pitch>
          <step>G</step>
          <alter>1</alter>
          <octave>3</octave>
        </pitch>
        <duration>5040</duration>
        <instrument id="I9d573450dc0fb14b5411876f11e6ba0e" />
        <type>eighth</type>
      </note>
      <note>
        <rest />
        <duration>5040</duration>
        <type>eighth</type>
      </note>
      <note dynamics="100.00">
        <pitch>
          <step>G</step>
          <alter>1</alter>
          <octave>3</octave>
        </pitch>
        <duration>5040</duration>
        <instrument id="I9d573450dc0fb14b5411876f11e6ba0e" />
        <type>eighth</type>
      </note>
      <note>
        <rest />
        <duration>5040</duration>
        <type>eighth</type>
      </note>
      <note dynamics="100.00">
        <pitch>
          <step>G</step>
          <alter>1</alter>
          <octave>3</octave>
        </pitch>
        <duration>5040</duration>
        <instrument id="I9d573450dc0fb14b5411876f11e6ba0e" />
        <type>eighth</type>
      </note>
    </measure>
    <!--========================= Measure 5 ==========================-->
    <measure implicit="no" number="5">
      <note dynamics="100.00">
        <pitch>
          <step>C</step>
          <alter>1</alter>
          <octave>3</octave>
        </pitch>
        <duration>5040</duration>
        <instrument id="I9d573450dc0fb14b5411876f11e6ba0e" />
        <voice>1</voice>
        <type>eighth</type>
        <accidental>sharp</accidental>
        <stem>down</stem>
        <beam number="1">begin</beam>
      </note>
      <note dynamics="100.00">
        <pitch>
          <step>G</step>
          <alter>1</alter>
          <octave>3</octave>
        </pitch>
        <duration>5040</duration>
        <instrument id="I9d573450dc0fb14b5411876f11e6ba0e" />
        <voice>1</voice>
        <type>eighth</type>
        <accidental>sharp</accidental>
        <stem>down</stem>
        <beam number="1">end</beam>
      </note>
      <note>
        <pitch>
          <step>C</step>
          <alter>1</alter>
          <octave>4</octave>
        </pitch>
        <duration>30240</duration>
        <instrument id="I9d573450dc0fb14b5411876f11e6ba0e" />
        <voice>1</voice>
        <type>half</type>
        <dot />
        <accidental>sharp</accidental>
      </note>
      <note>
        <chord />
        <pitch>
          <step>F</step>
          <octave>4</octave>
        </pitch>
        <duration>30240</duration>
        <instrument id="I9d573450dc0fb14b5411876f11e6ba0e" />
        <voice>1</voice>
        <type>half</type>
        <dot />
      </note>
      <backup>
        <duration>40320</duration>
      </backup>
      <note>
        <rest />
        <duration>15120</duration>
        <voice>2</voice>
        <type>quarter</type>
        <dot />
      </note>
      <note dynamics="100.00">
        <pitch>
          <step>G</step>
          <alter>1</alter>
          <octave>3</octave>
        </pitch>
        <duration>5040</duration>
        <instrument id="I9d573450dc0fb14b5411876f11e6ba0e" />
        <voice>2</voice>
        <type>eighth</type>
        <accidental>sharp</accidental>
      </note>
      <note dynamics="100.00">
        <pitch>
          <step>G</step>
          <alter>1</alter>
          <octave>3</octave>
        </pitch>
        <duration>5040</duration>
        <instrument id="I9d573450dc0fb14b5411876f11e6ba0e" />
        <voice>2</voice>
        <type>eighth</type>
        <stem>down</stem>
        <beam number="1">begin</beam>
      </note>
      <note dynamics="100.00">
        <pitch>
          <step>G</step>
          <alter>1</alter>
          <octave>3</octave>
        </pitch>
        <duration>5040</duration>
        <instrument id="I9d573450dc0fb14b5411876f11e6ba0e" />
        <voice>2</voice>
        <type>eighth</type>
        <stem>down</stem>
        <beam number="1">end</beam>
      </note>
      <note dynamics="100.00">
        <pitch>
          <step>G</step>
          <alter>1</alter>
          <octave>3</octave>
        </pitch>
        <duration>5040</duration>
        <instrument id="I9d573450dc0fb14b5411876f11e6ba0e" />
        <voice>2</voice>
        <type>eighth</type>
        <stem>down</stem>
        <beam number="1">begin</beam>
      </note>
      <note dynamics="100.00">
        <pitch>
          <step>G</step>
          <alter>1</alter>
          <octave>3</octave>
        </pitch>
        <duration>5040</duration>
        <instrument id="I9d573450dc0fb14b5411876f11e6ba0e" />
        <voice>2</voice>
        <type>eighth</type>
        <stem>down</stem>
        <beam number="1">end</beam>
      </note>
    </measure>
    <!--========================= Measure 6 ==========================-->
    <measure implicit="no" number="6">
      <note>
        <pitch>
          <step>E</step>
          <alter>-1</alter>
          <octave>4</octave>
        </pitch>
        <duration>30240</duration>
        <instrument id="I9d573450dc0fb14b5411876f11e6ba0e" />
        <voice>1</voice>
        <type>half</type>
        <dot />
      </note>
      <note>
        <chord />
        <pitch>
          <step>F</step>
          <alter>1</alter>
          <octave>4</octave>
        </pitch>
        <duration>30240</duration>
        <instrument id="I9d573450dc0fb14b5411876f11e6ba0e" />
        <voice>1</voice>
        <type>half</type>
        <dot />
        <accidental>sharp</accidental>
      </note>
      <note>
        <pitch>
          <step>C</step>
          <alter>1</alter>
          <octave>4</octave>
        </pitch>
        <duration>5040</duration>
        <instrument id="I9d573450dc0fb14b5411876f11e6ba0e" />
        <voice>1</voice>
        <type>eighth</type>
        <accidental>sharp</accidental>
        <stem>down</stem>
        <beam number="1">begin</beam>
      </note>
      <note>
        <chord />
        <pitch>
          <step>F</step>
          <alter>0</alter>
          <octave>4</octave>
        </pitch>
        <duration>5040</duration>
        <instrument id="I9d573450dc0fb14b5411876f11e6ba0e" />
        <voice>1</voice>
        <type>eighth</type>
        <accidental>natural</accidental>
      </note>
      <note dynamics="100.00">
        <pitch>
          <step>G</step>
          <alter>1</alter>
          <octave>3</octave>
        </pitch>
        <duration>5040</duration>
        <instrument id="I9d573450dc0fb14b5411876f11e6ba0e" />
        <voice>1</voice>
        <type>eighth</type>
        <accidental>sharp</accidental>
        <stem>down</stem>
        <beam number="1">end</beam>
      </note>
      <backup>
        <duration>40320</duration>
      </backup>
      <note>
        <rest />
        <duration>5040</duration>
        <voice>2</voice>
        <type>eighth</type>
      </note>
      <note dynamics="100.00">
        <pitch>
          <step>G</step>
          <alter>1</alter>
          <octave>3</octave>
        </pitch>
        <duration>5040</duration>
        <instrument id="I9d573450dc0fb14b5411876f11e6ba0e" />
        <voice>2</voice>
        <type>eighth</type>
      </note>
      <note dynamics="100.00">
        <pitch>
          <step>G</step>
          <alter>1</alter>
          <octave>3</octave>
        </pitch>
        <duration>5040</duration>
        <instrument id="I9d573450dc0fb14b5411876f11e6ba0e" />
        <voice>2</voice>
        <type>eighth</type>
        <stem>down</stem>
        <beam number="1">begin</beam>
      </note>
      <note dynamics="100.00">
        <pitch>
          <step>G</step>
          <alter>1</alter>
          <octave>3</octave>
        </pitch>
        <duration>5040</duration>
        <instrument id="I9d573450dc0fb14b5411876f11e6ba0e" />
        <voice>2</voice>
        <type>eighth</type>
        <stem>down</stem>
        <beam number="1">end</beam>
      </note>
      <note dynamics="100.00">
        <pitch>
          <step>B</step>
          <alter>-1</alter>
          <octave>3</octave>
        </pitch>
        <duration>5040</duration>
        <instrument id="I9d573450dc0fb14b5411876f11e6ba0e" />
        <voice>2</voice>
        <type>eighth</type>
        <stem>down</stem>
        <beam number="1">begin</beam>
      </note>
      <note dynamics="100.00">
        <pitch>
          <step>G</step>
          <alter>1</alter>
          <octave>3</octave>
        </pitch>
        <duration>5040</duration>
        <instrument id="I9d573450dc0fb14b5411876f11e6ba0e" />
        <voice>2</voice>
        <type>eighth</type>
        <accidental>sharp</accidental>
        <stem>down</stem>
        <beam number="1">end</beam>
      </note>
      <note>
        <rest />
        <duration>10080</duration>
        <voice>2</voice>
        <type>quarter</type>
      </note>
    </measure>
    <!--========================= Measure 7 ==========================-->
    <measure implicit="no" number="7">
      <note>
        <rest />
        <duration>5040</duration>
        <type>eighth</type>
      </note>
      <note dynamics="100.00">
        <pitch>
          <step>G</step>
          <alter>1</alter>
          <octave>3</octave>
        </pitch>
        <duration>10080</duration>
        <instrument id="I9d573450dc0fb14b5411876f11e6ba0e" />
        <type>quarter</type>
        <accidental>sharp</accidental>
      </note>
      <note dynamics="100.00">
        <pitch>
          <step>G</step>
          <alter>1</alter>
          <octave>3</octave>
        </pitch>
        <duration>5040</duration>
        <instrument id="I9d573450dc0fb14b5411876f11e6ba0e" />
        <type>eighth</type>
      </note>
      <note dynamics="100.00">
        <pitch>
          <step>G</step>
          <alter>1</alter>
          <octave>3</octave>
        </pitch>
        <duration>5040</duration>
        <instrument id="I9d573450dc0fb14b5411876f11e6ba0e" />
        <type>eighth</type>
      </note>
      <note dynamics="100.00">
        <pitch>
          <step>G</step>
          <alter>1</alter>
          <octave>3</octave>
        </pitch>
        <duration>10080</duration>
        <instrument id="I9d573450dc0fb14b5411876f11e6ba0e" />
        <type>quarter</type>
      </note>
      <note dynamics="100.00">
        <pitch>
          <step>G</step>
          <alter>1</alter>
          <octave>3</octave>
        </pitch>
        <duration>5040</duration>
        <instrument id="I9d573450dc0fb14b5411876f11e6ba0e" />
        <type>eighth</type>
      </note>
    </measure>
    <!--========================= Measure 8 ==========================-->
    <measure implicit="no" number="8">
      <note>
        <rest />
        <duration>5040</duration>
        <type>eighth</type>
      </note>
      <note dynamics="100.00">
        <pitch>
          <step>G</step>
          <alter>1</alter>
          <octave>3</octave>
        </pitch>
        <duration>5040</duration>
        <instrument id="I9d573450dc0fb14b5411876f11e6ba0e" />
        <type>eighth</type>
        <accidental>sharp</accidental>
      </note>
      <note>
        <rest />
        <duration>5040</duration>
        <type>eighth</type>
      </note>
      <note dynamics="100.00">
        <pitch>
          <step>G</step>
          <alter>1</alter>
          <octave>3</octave>
        </pitch>
        <duration>5040</duration>
        <instrument id="I9d573450dc0fb14b5411876f11e6ba0e" />
        <type>eighth</type>
      </note>
      <note>
        <pitch>
          <step>F</step>
          <octave>4</octave>
        </pitch>
        <duration>5040</duration>
        <instrument id="I9d573450dc0fb14b5411876f11e6ba0e" />
        <type>eighth</type>
        <stem>down</stem>
        <beam number="1">begin</beam>
      </note>
      <note>
        <chord />
        <pitch>
          <step>C</step>
          <alter>1</alter>
          <octave>4</octave>
        </pitch>
        <duration>5040</duration>
        <instrument id="I9d573450dc0fb14b5411876f11e6ba0e" />
        <type>eighth</type>
        <accidental>sharp</accidental>
      </note>
      <note dynamics="100.00">
        <pitch>
          <step>G</step>
          <alter>1</alter>
          <octave>3</octave>
        </pitch>
        <duration>5040</duration>
        <instrument id="I9d573450dc0fb14b5411876f11e6ba0e" />
        <type>eighth</type>
        <accidental>sharp</accidental>
        <stem>down</stem>
        <beam number="1">end</beam>
      </note>
      <note>
        <pitch>
          <step>C</step>
          <alter>1</alter>
          <octave>4</octave>
        </pitch>
        <duration>5040</duration>
        <instrument id="I9d573450dc0fb14b5411876f11e6ba0e" />
        <type>eighth</type>
        <accidental>sharp</accidental>
        <stem>down</stem>
        <beam number="1">begin</beam>
      </note>
      <note>
        <chord />
        <pitch>
          <step>F</step>
          <octave>4</octave>
        </pitch>
        <duration>5040</duration>
        <instrument id="I9d573450dc0fb14b5411876f11e6ba0e" />
        <type>eighth</type>
      </note>
      <note dynamics="100.00">
        <pitch>
          <step>G</step>
          <alter>1</alter>
          <octave>3</octave>
        </pitch>
        <duration>5040</duration>
        <instrument id="I9d573450dc0fb14b5411876f11e6ba0e" />
        <type>eighth</type>
        <accidental>sharp</accidental>
        <stem>down</stem>
        <beam number="1">end</beam>
      </note>
    </measure>
  </part>
</score-partwise>