<?xml version="1.0" encoding="utf-8"?>
<!DOCTYPE score-partwise  PUBLIC "-//Recordare//DTD MusicXML 4.0 Partwise//EN" "http://www.musicxml.org/dtds/partwise.dtd">
<score-partwise version="4.0">
  <movement-title>Music21 Fragment</movement-title>
  <identification>
    <creator type="composer">Music21</creator>
    <encoding>
      <encoding-date>2026-05-13</encoding-date>
      <software>music21 v.9.9.2</software>
    </encoding>
  </identification>
  <defaults>
    <scaling>
      <millimeters>7</millimeters>
      <tenths>40</tenths>
    </scaling>
  </defaults>
  <part-list>
    <score-part id="Pa8866842dd808954ceefc500b1ad17d0">
      <part-name>SopraneStaff:Soprane</part-name>
      <part-abbreviation>Pno</part-abbreviation>
      <score-instrument id="Ie3bef28ff8dec8c0f377c38e4e070cf8">
        <instrument-name>Piano</instrument-name>
        <instrument-abbreviation>Pno</instrument-abbreviation>
      </score-instrument>
      <score-instrument id="None">
        <instrument-name>acoustic grand</instrument-name>
      </score-instrument>
      <midi-instrument id="Ie3bef28ff8dec8c0f377c38e4e070cf8">
        <midi-channel>2</midi-channel>
        <midi-program>1</midi-program>
      </midi-instrument>
      <midi-instrument id="None">
        <midi-channel>1</midi-channel>
        <midi-program>1</midi-program>
      </midi-instrument>
    </score-part>
    <score-part id="P83ca349bc9da4dd0625aae2f3e17b9dd">
      <part-name>TenorStaff:Tenor</part-name>
      <part-abbreviation>Pno</part-abbreviation>
      <score-instrument id="I9cf2b33873cb4503d47ba58a5597475f">
        <instrument-name>Piano</instrument-name>
        <instrument-abbreviation>Pno</instrument-abbreviation>
      </score-instrument>
      <score-instrument id="None">
        <instrument-name>acoustic grand</instrument-name>
      </score-instrument>
      <midi-instrument id="I9cf2b33873cb4503d47ba58a5597475f">
        <midi-channel>4</midi-channel>
        <midi-program>1</midi-program>
      </midi-instrument>
      <midi-instrument id="None">
        <midi-channel>1</midi-channel>
        <midi-program>1</midi-program>
      </midi-instrument>
    </score-part>
  </part-list>
  <!--=========================== Part 1 ===========================-->
  <part id="Pa8866842dd808954ceefc500b1ad17d0">
    <!--========================= Measure 1 ==========================-->
    <measure implicit="no" number="1">
      <attributes>
        <divisions>10080</divisions>
        <key>
          <fifths>1</fifths>
          <mode>major</mode>
        </key>
        <time>
          <beats>3</beats>
          <beat-type>4</beat-type>
        </time>
        <clef>
          <sign>G</sign>
          <line>2</line>
        </clef>
      </attributes>
      <direction>
        <direction-type>
          <metronome parentheses="no">
            <beat-unit>quarter</beat-unit>
            <per-minute>72</per-minute>
          </metronome>
        </direction-type>
        <sound tempo="72" />
      </direction>
      <note>
        <pitch>
          <step>G</step>
          <octave>4</octave>
        </pitch>
        <duration>10080</duration>
        <instrument id="Ic5d1fa692c829835548b4491a13249eb" />
        <voice>1</voice>
        <type>quarter</type>
      </note>
      <note>
        <chord />
        <pitch>
          <step>D</step>
          <octave>4</octave>
        </pitch>
        <duration>10080</duration>
        <instrument id="Ic5d1fa692c829835548b4491a13249eb" />
        <voice>1</voice>
        <type>quarter</type>
      </note>
      <note dynamics="100.00">
        <pitch>
          <step>G</step>
          <octave>4</octave>
        </pitch>
        <duration>20160</duration>
        <instrument id="Ic5d1fa692c829835548b4491a13249eb" />
        <voice>1</voice>
        <type>half</type>
      </note>
      <backup>
        <duration>30240</duration>
      </backup>
      <note>
        <rest />
        <duration>10080</duration>
        <voice>2</voice>
        <type>quarter</type>
      </note>
      <note dynamics="100.00">
        <pitch>
          <step>D</step>
          <octave>4</octave>
        </pitch>
        <duration>10080</duration>
        <instrument id="Ic5d1fa692c829835548b4491a13249eb" />
        <voice>2</voice>
        <type>quarter</type>
      </note>
      <note dynamics="100.00">
        <pitch>
          <step>E</step>
          <octave>4</octave>
        </pitch>
        <duration>10080</duration>
        <instrument id="Ic5d1fa692c829835548b4491a13249eb" />
        <voice>2</voice>
        <type>quarter</type>
      </note>
    </measure>
    <!--========================= Measure 2 ==========================-->
    <measure implicit="no" number="2">
      <note>
        <pitch>
          <step>D</step>
          <octave>5</octave>
        </pitch>
        <duration>10080</duration>
        <instrument id="Ic5d1fa692c829835548b4491a13249eb" />
        <voice>1</voice>
        <type>quarter</type>
      </note>
      <note>
        <chord />
        <pitch>
          <step>D</step>
          <octave>4</octave>
        </pitch>
        <duration>10080</duration>
        <instrument id="Ic5d1fa692c829835548b4491a13249eb" />
        <voice>1</voice>
        <type>quarter</type>
      </note>
      <note dynamics="100.00">
        <pitch>
          <step>B</step>
          <octave>4</octave>
        </pitch>
        <duration>15120</duration>
        <instrument id="Ic5d1fa692c829835548b4491a13249eb" />
        <voice>1</voice>
        <type>quarter</type>
        <dot />
      </note>
      <note dynamics="100.00">
        <pitch>
          <step>A</step>
          <octave>4</octave>
        </pitch>
        <duration>5040</duration>
        <instrument id="Ic5d1fa692c829835548b4491a13249eb" />
        <voice>1</voice>
        <type>eighth</type>
      </note>
      <backup>
        <duration>30240</duration>
      </backup>
      <note>
        <rest />
        <duration>10080</duration>
        <voice>2</voice>
        <type>quarter</type>
      </note>
      <note dynamics="100.00">
        <pitch>
          <step>D</step>
          <octave>4</octave>
        </pitch>
        <duration>20160</duration>
        <instrument id="Ic5d1fa692c829835548b4491a13249eb" />
        <voice>2</voice>
        <type>half</type>
      </note>
    </measure>
    <!--========================= Measure 3 ==========================-->
    <measure implicit="no" number="3">
      <note>
        <pitch>
          <step>G</step>
          <octave>4</octave>
        </pitch>
        <duration>10080</duration>
        <instrument id="Ic5d1fa692c829835548b4491a13249eb" />
        <voice>1</voice>
        <type>quarter</type>
      </note>
      <note>
        <chord />
        <pitch>
          <step>B</step>
          <octave>3</octave>
        </pitch>
        <duration>10080</duration>
        <instrument id="Ic5d1fa692c829835548b4491a13249eb" />
        <voice>1</voice>
        <type>quarter</type>
      </note>
      <note dynamics="100.00">
        <pitch>
          <step>G</step>
          <octave>4</octave>
        </pitch>
        <duration>15120</duration>
        <instrument id="Ic5d1fa692c829835548b4491a13249eb" />
        <voice>1</voice>
        <type>quarter</type>
        <dot />
      </note>
      <note>
        <pitch>
          <step>A</step>
          <octave>4</octave>
        </pitch>
        <duration>5040</duration>
        <instrument id="Ic5d1fa692c829835548b4491a13249eb" />
        <voice>1</voice>
        <type>eighth</type>
      </note>
      <note>
        <chord />
        <pitch>
          <step>F</step>
          <alter>1</alter>
          <octave>4</octave>
        </pitch>
        <duration>5040</duration>
        <instrument id="Ic5d1fa692c829835548b4491a13249eb" />
        <voice>1</voice>
        <type>eighth</type>
      </note>
      <backup>
        <duration>30240</duration>
      </backup>
      <note>
        <rest />
        <duration>10080</duration>
        <voice>2</voice>
        <type>quarter</type>
      </note>
      <note dynamics="100.00">
        <pitch>
          <step>E</step>
          <octave>4</octave>
        </pitch>
        <duration>5040</duration>
        <instrument id="Ic5d1fa692c829835548b4491a13249eb" />
        <voice>2</voice>
        <type>eighth</type>
        <stem>up</stem>
        <beam number="1">begin</beam>
      </note>
      <note dynamics="100.00">
        <pitch>
          <step>D</step>
          <octave>4</octave>
        </pitch>
        <duration>5040</duration>
        <instrument id="Ic5d1fa692c829835548b4491a13249eb" />
        <voice>2</voice>
        <type>eighth</type>
        <stem>up</stem>
        <beam number="1">end</beam>
      </note>
      <note dynamics="100.00">
        <pitch>
          <step>E</step>
          <octave>4</octave>
        </pitch>
        <duration>5040</duration>
        <instrument id="Ic5d1fa692c829835548b4491a13249eb" />
        <voice>2</voice>
        <type>eighth</type>
      </note>
      <note>
        <rest />
        <duration>5040</duration>
        <voice>2</voice>
        <type>eighth</type>
      </note>
    </measure>
    <!--========================= Measure 4 ==========================-->
    <measure implicit="no" number="4">
      <note>
        <pitch>
          <step>B</step>
          <octave>4</octave>
        </pitch>
        <duration>10080</duration>
        <instrument id="Ic5d1fa692c829835548b4491a13249eb" />
        <type>quarter</type>
      </note>
      <note>
        <chord />
        <pitch>
          <step>G</step>
          <octave>4</octave>
        </pitch>
        <duration>10080</duration>
        <instrument id="Ic5d1fa692c829835548b4491a13249eb" />
        <type>quarter</type>
      </note>
      <note>
        <pitch>
          <step>A</step>
          <octave>4</octave>
        </pitch>
        <duration>20160</duration>
        <instrument id="Ic5d1fa692c829835548b4491a13249eb" />
        <type>half</type>
      </note>
      <note>
        <chord />
        <pitch>
          <step>F</step>
          <alter>1</alter>
          <octave>4</octave>
        </pitch>
        <duration>20160</duration>
        <instrument id="Ic5d1fa692c829835548b4491a13249eb" />
        <type>half</type>
      </note>
    </measure>
    <!--========================= Measure 5 ==========================-->
    <measure implicit="no" number="5">
      <note>
        <pitch>
          <step>G</step>
          <octave>4</octave>
        </pitch>
        <duration>10080</duration>
        <instrument id="Ic5d1fa692c829835548b4491a13249eb" />
        <voice>1</voice>
        <type>quarter</type>
      </note>
      <note>
        <chord />
        <pitch>
          <step>B</step>
          <octave>4</octave>
        </pitch>
        <duration>10080</duration>
        <instrument id="Ic5d1fa692c829835548b4491a13249eb" />
        <voice>1</voice>
        <type>quarter</type>
      </note>
      <note dynamics="100.00">
        <pitch>
          <step>D</step>
          <octave>5</octave>
        </pitch>
        <duration>20160</duration>
        <instrument id="Ic5d1fa692c829835548b4491a13249eb" />
        <voice>1</voice>
        <type>half</type>
      </note>
      <backup>
        <duration>30240</duration>
      </backup>
      <note>
        <rest />
        <duration>10080</duration>
        <voice>2</voice>
        <type>quarter</type>
      </note>
      <note dynamics="100.00">
        <pitch>
          <step>D</step>
          <octave>4</octave>
        </pitch>
        <duration>10080</duration>
        <instrument id="Ic5d1fa692c829835548b4491a13249eb" />
        <voice>2</voice>
        <type>quarter</type>
      </note>
      <note dynamics="100.00">
        <pitch>
          <step>E</step>
          <octave>4</octave>
        </pitch>
        <duration>10080</duration>
        <instrument id="Ic5d1fa692c829835548b4491a13249eb" />
        <voice>2</voice>
        <type>quarter</type>
      </note>
    </measure>
    <!--========================= Measure 6 ==========================-->
    <measure implicit="no" number="6">
      <note>
        <pitch>
          <step>C</step>
          <octave>5</octave>
        </pitch>
        <duration>10080</duration>
        <instrument id="Ic5d1fa692c829835548b4491a13249eb" />
        <voice>1</voice>
        <type>quarter</type>
      </note>
      <note>
        <chord />
        <pitch>
          <step>F</step>
          <alter>1</alter>
          <octave>4</octave>
        </pitch>
        <duration>10080</duration>
        <instrument id="Ic5d1fa692c829835548b4491a13249eb" />
        <voice>1</voice>
        <type>quarter</type>
      </note>
      <note dynamics="100.00">
        <pitch>
          <step>B</step>
          <octave>4</octave>
        </pitch>
        <duration>10080</duration>
        <instrument id="Ic5d1fa692c829835548b4491a13249eb" />
        <voice>1</voice>
        <type>quarter</type>
      </note>
      <note dynamics="100.00">
        <pitch>
          <step>A</step>
          <octave>4</octave>
        </pitch>
        <duration>10080</duration>
        <tie type="start" />
        <instrument id="Ic5d1fa692c829835548b4491a13249eb" />
        <voice>1</voice>
        <type>quarter</type>
        <notations>
          <tied type="start" />
        </notations>
      </note>
      <backup>
        <duration>30240</duration>
      </backup>
      <note>
        <rest />
        <duration>10080</duration>
        <voice>2</voice>
        <type>quarter</type>
      </note>
      <note dynamics="100.00">
        <pitch>
          <step>G</step>
          <octave>4</octave>
        </pitch>
        <duration>20160</duration>
        <instrument id="Ic5d1fa692c829835548b4491a13249eb" />
        <voice>2</voice>
        <type>half</type>
      </note>
    </measure>
    <!--========================= Measure 7 ==========================-->
    <measure implicit="no" number="7">
      <note dynamics="100.00">
        <pitch>
          <step>F</step>
          <alter>1</alter>
          <octave>4</octave>
        </pitch>
        <duration>10080</duration>
        <instrument id="Ic5d1fa692c829835548b4491a13249eb" />
        <type>quarter</type>
      </note>
      <note dynamics="100.00">
        <pitch>
          <step>A</step>
          <octave>4</octave>
        </pitch>
        <duration>10080</duration>
        <tie type="stop" />
        <instrument id="Ic5d1fa692c829835548b4491a13249eb" />
        <type>quarter</type>
        <notations>
          <tied type="stop" />
        </notations>
      </note>
      <note>
        <pitch>
          <step>G</step>
          <octave>4</octave>
        </pitch>
        <duration>20160</duration>
        <instrument id="Ic5d1fa692c829835548b4491a13249eb" />
        <type>half</type>
      </note>
      <note>
        <chord />
        <pitch>
          <step>D</step>
          <octave>4</octave>
        </pitch>
        <duration>20160</duration>
        <instrument id="Ic5d1fa692c829835548b4491a13249eb" />
        <type>half</type>
      </note>
    </measure>
    <!--========================= Measure 8 ==========================-->
    <measure implicit="no" number="8">
      <note dynamics="100.00">
        <pitch>
          <step>B</step>
          <octave>4</octave>
        </pitch>
        <duration>10080</duration>
        <instrument id="Ic5d1fa692c829835548b4491a13249eb" />
        <voice>1</voice>
        <type>quarter</type>
      </note>
      <note dynamics="100.00">
        <pitch>
          <step>B</step>
          <octave>4</octave>
        </pitch>
        <duration>10080</duration>
        <instrument id="Ic5d1fa692c829835548b4491a13249eb" />
        <voice>1</voice>
        <type>quarter</type>
      </note>
      <note dynamics="100.00">
        <pitch>
          <step>C</step>
          <octave>5</octave>
        </pitch>
        <duration>10080</duration>
        <instrument id="Ic5d1fa692c829835548b4491a13249eb" />
        <voice>1</voice>
        <type>quarter</type>
      </note>
      <backup>
        <duration>30240</duration>
      </backup>
      <note dynamics="100.00">
        <pitch>
          <step>G</step>
          <octave>4</octave>
        </pitch>
        <duration>15120</duration>
        <instrument id="Ic5d1fa692c829835548b4491a13249eb" />
        <voice>2</voice>
        <type>quarter</type>
        <dot />
      </note>
      <note dynamics="100.00">
        <pitch>
          <step>F</step>
          <alter>1</alter>
          <octave>4</octave>
        </pitch>
        <duration>5040</duration>
        <instrument id="Ic5d1fa692c829835548b4491a13249eb" />
        <voice>2</voice>
        <type>eighth</type>
      </note>
      <note dynamics="100.00">
        <pitch>
          <step>E</step>
          <octave>4</octave>
        </pitch>
        <duration>5040</duration>
        <instrument id="Ic5d1fa692c829835548b4491a13249eb" />
        <voice>2</voice>
        <type>eighth</type>
        <stem>up</stem>
        <beam number="1">begin</beam>
      </note>
      <note dynamics="100.00">
        <pitch>
          <step>F</step>
          <alter>1</alter>
          <octave>4</octave>
        </pitch>
        <duration>5040</duration>
        <instrument id="Ic5d1fa692c829835548b4491a13249eb" />
        <voice>2</voice>
        <type>eighth</type>
        <stem>up</stem>
        <beam number="1">end</beam>
      </note>
    </measure>
  </part>
  <!--=========================== Part 2 ===========================-->
  <part id="P83ca349bc9da4dd0625aae2f3e17b9dd">
    <!--========================= Measure 1 ==========================-->
    <measure implicit="no" number="1">
      <attributes>
        <divisions>10080</divisions>
        <key>
          <fifths>1</fifths>
          <mode>major</mode>
        </key>
        <time>
          <beats>3</beats>
          <beat-type>4</beat-type>
        </time>
        <clef>
          <sign>F</sign>
          <line>4</line>
        </clef>
      </attributes>
      <direction>
        <direction-type>
          <words />
        </direction-type>
        <sound tempo="72" />
      </direction>
      <note>
        <pitch>
          <step>B</step>
          <octave>3</octave>
        </pitch>
        <duration>10080</duration>
        <instrument id="I56e106c07b8be09dec433f5d276151fe" />
        <voice>1</voice>
        <type>quarter</type>
      </note>
      <note>
        <chord />
        <pitch>
          <step>G</step>
          <octave>2</octave>
        </pitch>
        <duration>10080</duration>
        <instrument id="I56e106c07b8be09dec433f5d276151fe" />
        <voice>1</voice>
        <type>quarter</type>
      </note>
      <note>
        <pitch>
          <step>G</step>
          <octave>3</octave>
        </pitch>
        <duration>10080</duration>
        <instrument id="I56e106c07b8be09dec433f5d276151fe" />
        <voice>1</voice>
        <type>quarter</type>
      </note>
      <note>
        <chord />
        <pitch>
          <step>B</step>
          <octave>3</octave>
        </pitch>
        <duration>10080</duration>
        <instrument id="I56e106c07b8be09dec433f5d276151fe" />
        <voice>1</voice>
        <type>quarter</type>
      </note>
      <note dynamics="100.00">
        <pitch>
          <step>C</step>
          <octave>4</octave>
        </pitch>
        <duration>5040</duration>
        <instrument id="I56e106c07b8be09dec433f5d276151fe" />
        <voice>1</voice>
        <type>eighth</type>
        <stem>down</stem>
        <beam number="1">begin</beam>
      </note>
      <note dynamics="100.00">
        <pitch>
          <step>B</step>
          <octave>3</octave>
        </pitch>
        <duration>5040</duration>
        <instrument id="I56e106c07b8be09dec433f5d276151fe" />
        <voice>1</voice>
        <type>eighth</type>
        <stem>down</stem>
        <beam number="1">end</beam>
      </note>
      <backup>
        <duration>30240</duration>
      </backup>
      <note>
        <rest />
        <duration>20160</duration>
        <voice>2</voice>
        <type>half</type>
      </note>
      <note dynamics="100.00">
        <pitch>
          <step>E</step>
          <octave>3</octave>
        </pitch>
        <duration>10080</duration>
        <instrument id="I56e106c07b8be09dec433f5d276151fe" />
        <voice>2</voice>
        <type>quarter</type>
      </note>
    </measure>
    <!--========================= Measure 2 ==========================-->
    <measure implicit="no" number="2">
      <note>
        <pitch>
          <step>A</step>
          <octave>3</octave>
        </pitch>
        <duration>10080</duration>
        <instrument id="I56e106c07b8be09dec433f5d276151fe" />
        <type>quarter</type>
      </note>
      <note>
        <chord />
        <pitch>
          <step>F</step>
          <alter>1</alter>
          <octave>3</octave>
        </pitch>
        <duration>10080</duration>
        <instrument id="I56e106c07b8be09dec433f5d276151fe" />
        <type>quarter</type>
      </note>
      <note dynamics="100.00">
        <pitch>
          <step>G</step>
          <octave>3</octave>
        </pitch>
        <duration>10080</duration>
        <instrument id="I56e106c07b8be09dec433f5d276151fe" />
        <type>quarter</type>
      </note>
      <note>
        <pitch>
          <step>D</step>
          <octave>3</octave>
        </pitch>
        <duration>10080</duration>
        <instrument id="I56e106c07b8be09dec433f5d276151fe" />
        <type>quarter</type>
      </note>
      <note>
        <chord />
        <pitch>
          <step>F</step>
          <alter>1</alter>
          <octave>3</octave>
        </pitch>
        <duration>10080</duration>
        <instrument id="I56e106c07b8be09dec433f5d276151fe" />
        <type>quarter</type>
      </note>
    </measure>
    <!--========================= Measure 3 ==========================-->
    <measure implicit="no" number="3">
      <note>
        <pitch>
          <step>G</step>
          <octave>3</octave>
        </pitch>
        <duration>10080</duration>
        <instrument id="I56e106c07b8be09dec433f5d276151fe" />
        <voice>1</voice>
        <type>quarter</type>
      </note>
      <note>
        <chord />
        <pitch>
          <step>E</step>
          <octave>3</octave>
        </pitch>
        <duration>10080</duration>
        <instrument id="I56e106c07b8be09dec433f5d276151fe" />
        <voice>1</voice>
        <type>quarter</type>
      </note>
      <note dynamics="100.00">
        <pitch>
          <step>C</step>
          <octave>4</octave>
        </pitch>
        <duration>5040</duration>
        <instrument id="I56e106c07b8be09dec433f5d276151fe" />
        <voice>1</voice>
        <type>eighth</type>
        <stem>down</stem>
        <beam number="1">begin</beam>
      </note>
      <note dynamics="100.00">
        <pitch>
          <step>B</step>
          <octave>3</octave>
        </pitch>
        <duration>5040</duration>
        <instrument id="I56e106c07b8be09dec433f5d276151fe" />
        <voice>1</voice>
        <type>eighth</type>
        <stem>down</stem>
        <beam number="1">end</beam>
      </note>
      <note dynamics="100.00">
        <pitch>
          <step>C</step>
          <octave>4</octave>
        </pitch>
        <duration>10080</duration>
        <instrument id="I56e106c07b8be09dec433f5d276151fe" />
        <voice>1</voice>
        <type>quarter</type>
      </note>
      <backup>
        <duration>30240</duration>
      </backup>
      <note>
        <rest />
        <duration>10080</duration>
        <voice>2</voice>
        <type>quarter</type>
      </note>
      <note dynamics="100.00">
        <pitch>
          <step>C</step>
          <octave>3</octave>
        </pitch>
        <duration>10080</duration>
        <instrument id="I56e106c07b8be09dec433f5d276151fe" />
        <voice>2</voice>
        <type>quarter</type>
      </note>
      <note dynamics="100.00">
        <pitch>
          <step>B</step>
          <octave>2</octave>
        </pitch>
        <duration>5040</duration>
        <instrument id="I56e106c07b8be09dec433f5d276151fe" />
        <voice>2</voice>
        <type>eighth</type>
        <stem>up</stem>
        <beam number="1">begin</beam>
      </note>
      <note dynamics="100.00">
        <pitch>
          <step>A</step>
          <octave>2</octave>
        </pitch>
        <duration>5040</duration>
        <instrument id="I56e106c07b8be09dec433f5d276151fe" />
        <voice>2</voice>
        <type>eighth</type>
        <stem>up</stem>
        <beam number="1">end</beam>
      </note>
    </measure>
    <!--========================= Measure 4 ==========================-->
    <measure implicit="no" number="4">
      <note>
        <pitch>
          <step>D</step>
          <octave>4</octave>
        </pitch>
        <duration>10080</duration>
        <instrument id="I56e106c07b8be09dec433f5d276151fe" />
        <type>quarter</type>
      </note>
      <note>
        <chord />
        <pitch>
          <step>G</step>
          <octave>2</octave>
        </pitch>
        <duration>10080</duration>
        <instrument id="I56e106c07b8be09dec433f5d276151fe" />
        <type>quarter</type>
      </note>
      <note>
        <pitch>
          <step>D</step>
          <octave>4</octave>
        </pitch>
        <duration>20160</duration>
        <instrument id="I56e106c07b8be09dec433f5d276151fe" />
        <type>half</type>
      </note>
      <note>
        <chord />
        <pitch>
          <step>D</step>
          <octave>3</octave>
        </pitch>
        <duration>20160</duration>
        <instrument id="I56e106c07b8be09dec433f5d276151fe" />
        <type>half</type>
      </note>
    </measure>
    <!--========================= Measure 5 ==========================-->
    <measure implicit="no" number="5">
      <note>
        <pitch>
          <step>D</step>
          <octave>4</octave>
        </pitch>
        <duration>10080</duration>
        <instrument id="I56e106c07b8be09dec433f5d276151fe" />
        <type>quarter</type>
      </note>
      <note>
        <chord />
        <pitch>
          <step>G</step>
          <octave>2</octave>
        </pitch>
        <duration>10080</duration>
        <instrument id="I56e106c07b8be09dec433f5d276151fe" />
        <type>quarter</type>
      </note>
      <note>
        <pitch>
          <step>F</step>
          <alter>1</alter>
          <octave>2</octave>
        </pitch>
        <duration>10080</duration>
        <instrument id="I56e106c07b8be09dec433f5d276151fe" />
        <type>quarter</type>
      </note>
      <note>
        <chord />
        <pitch>
          <step>A</step>
          <octave>3</octave>
        </pitch>
        <duration>10080</duration>
        <instrument id="I56e106c07b8be09dec433f5d276151fe" />
        <type>quarter</type>
      </note>
      <note>
        <pitch>
          <step>B</step>
          <octave>3</octave>
        </pitch>
        <duration>10080</duration>
        <instrument id="I56e106c07b8be09dec433f5d276151fe" />
        <type>quarter</type>
      </note>
      <note>
        <chord />
        <pitch>
          <step>G</step>
          <octave>2</octave>
        </pitch>
        <duration>10080</duration>
        <instrument id="I56e106c07b8be09dec433f5d276151fe" />
        <type>quarter</type>
      </note>
    </measure>
    <!--========================= Measure 6 ==========================-->
    <measure implicit="no" number="6">
      <note>
        <pitch>
          <step>C</step>
          <octave>4</octave>
        </pitch>
        <duration>10080</duration>
        <instrument id="I56e106c07b8be09dec433f5d276151fe" />
        <type>quarter</type>
      </note>
      <note>
        <chord />
        <pitch>
          <step>A</step>
          <octave>2</octave>
        </pitch>
        <duration>10080</duration>
        <instrument id="I56e106c07b8be09dec433f5d276151fe" />
        <type>quarter</type>
      </note>
      <note>
        <pitch>
          <step>D</step>
          <octave>4</octave>
        </pitch>
        <duration>10080</duration>
        <instrument id="I56e106c07b8be09dec433f5d276151fe" />
        <type>quarter</type>
      </note>
      <note>
        <chord />
        <pitch>
          <step>B</step>
          <octave>2</octave>
        </pitch>
        <duration>10080</duration>
        <instrument id="I56e106c07b8be09dec433f5d276151fe" />
        <type>quarter</type>
      </note>
      <note>
        <pitch>
          <step>E</step>
          <octave>4</octave>
        </pitch>
        <duration>10080</duration>
        <instrument id="I56e106c07b8be09dec433f5d276151fe" />
        <type>quarter</type>
      </note>
      <note>
        <chord />
        <pitch>
          <step>C</step>
          <octave>3</octave>
        </pitch>
        <duration>10080</duration>
        <instrument id="I56e106c07b8be09dec433f5d276151fe" />
        <type>quarter</type>
      </note>
    </measure>
    <!--========================= Measure 7 ==========================-->
    <measure implicit="no" number="7">
      <note dynamics="100.00">
        <pitch>
          <step>D</step>
          <octave>4</octave>
        </pitch>
        <duration>5040</duration>
        <instrument id="I56e106c07b8be09dec433f5d276151fe" />
        <voice>1</voice>
        <type>eighth</type>
        <stem>down</stem>
        <beam number="1">begin</beam>
      </note>
      <note dynamics="100.00">
        <pitch>
          <step>C</step>
          <octave>4</octave>
        </pitch>
        <duration>5040</duration>
        <instrument id="I56e106c07b8be09dec433f5d276151fe" />
        <voice>1</voice>
        <type>eighth</type>
        <stem>down</stem>
        <beam number="1">end</beam>
      </note>
      <note>
        <pitch>
          <step>B</step>
          <octave>3</octave>
        </pitch>
        <duration>20160</duration>
        <instrument id="I56e106c07b8be09dec433f5d276151fe" />
        <voice>1</voice>
        <type>half</type>
      </note>
      <note>
        <chord />
        <pitch>
          <step>G</step>
          <octave>2</octave>
        </pitch>
        <duration>20160</duration>
        <instrument id="I56e106c07b8be09dec433f5d276151fe" />
        <voice>1</voice>
        <type>half</type>
      </note>
      <backup>
        <duration>30240</duration>
      </backup>
      <note dynamics="100.00">
        <pitch>
          <step>D</step>
          <octave>3</octave>
        </pitch>
        <duration>10080</duration>
        <instrument id="I56e106c07b8be09dec433f5d276151fe" />
        <voice>2</voice>
        <type>quarter</type>
      </note>
      <note>
        <rest />
        <duration>20160</duration>
        <voice>2</voice>
        <type>half</type>
      </note>
    </measure>
    <!--========================= Measure 8 ==========================-->
    <measure implicit="no" number="8">
      <note>
        <pitch>
          <step>G</step>
          <octave>2</octave>
        </pitch>
        <duration>10080</duration>
        <instrument id="I56e106c07b8be09dec433f5d276151fe" />
        <type>quarter</type>
      </note>
      <note>
        <chord />
        <pitch>
          <step>D</step>
          <octave>4</octave>
        </pitch>
        <duration>10080</duration>
        <instrument id="I56e106c07b8be09dec433f5d276151fe" />
        <type>quarter</type>
      </note>
      <note>
        <pitch>
          <step>D</step>
          <octave>4</octave>
        </pitch>
        <duration>10080</duration>
        <instrument id="I56e106c07b8be09dec433f5d276151fe" />
        <type>quarter</type>
      </note>
      <note>
        <chord />
        <pitch>
          <step>G</step>
          <octave>2</octave>
        </pitch>
        <duration>10080</duration>
        <instrument id="I56e106c07b8be09dec433f5d276151fe" />
        <type>quarter</type>
      </note>
      <note>
        <pitch>
          <step>C</step>
          <octave>4</octave>
        </pitch>
        <duration>10080</duration>
        <instrument id="I56e106c07b8be09dec433f5d276151fe" />
        <type>quarter</type>
      </note>
      <note>
        <chord />
        <pitch>
          <step>A</step>
          <octave>2</octave>
        </pitch>
        <duration>10080</duration>
        <instrument id="I56e106c07b8be09dec433f5d276151fe" />
        <type>quarter</type>
      </note>
    </measure>
  </part>
</score-partwise>