<?xml version="1.0" encoding="utf-8"?>
<!DOCTYPE score-partwise  PUBLIC "-//Recordare//DTD MusicXML 4.0 Partwise//EN" "http://www.musicxml.org/dtds/partwise.dtd">
<score-partwise version="4.0">
  <movement-title>Music21 Fragment</movement-title>
  <identification>
    <creator type="composer">Music21</creator>
    <encoding>
      <encoding-date>2026-05-13</encoding-date>
      <software>music21 v.9.9.2</software>
    </encoding>
  </identification>
  <defaults>
    <scaling>
      <millimeters>7</millimeters>
      <tenths>40</tenths>
    </scaling>
  </defaults>
  <part-list>
    <score-part id="P543cb3cb23ff6890a8cd1d26c98fc363">
      <part-name>rh:</part-name>
      <part-abbreviation>Pno</part-abbreviation>
      <score-instrument id="I830b0db079be883a27bf25249e747535">
        <instrument-name>Piano</instrument-name>
        <instrument-abbreviation>Pno</instrument-abbreviation>
      </score-instrument>
      <score-instrument id="None">
        <instrument-name>acoustic grand</instrument-name>
      </score-instrument>
      <midi-instrument id="I830b0db079be883a27bf25249e747535">
        <midi-channel>2</midi-channel>
        <midi-program>1</midi-program>
      </midi-instrument>
      <midi-instrument id="None">
        <midi-channel>1</midi-channel>
        <midi-program>1</midi-program>
      </midi-instrument>
    </score-part>
    <score-part id="P1e10a246d948fcae17f14b6e910bb0ee">
      <part-name>lh:</part-name>
      <part-abbreviation>Pno</part-abbreviation>
      <score-instrument id="Ib0b80bb8f1a94e006fbb50a916434f7c">
        <instrument-name>Piano</instrument-name>
        <instrument-abbreviation>Pno</instrument-abbreviation>
      </score-instrument>
      <score-instrument id="None">
        <instrument-name>acoustic grand</instrument-name>
      </score-instrument>
      <midi-instrument id="Ib0b80bb8f1a94e006fbb50a916434f7c">
        <midi-channel>4</midi-channel>
        <midi-program>1</midi-program>
      </midi-instrument>
      <midi-instrument id="None">
        <midi-channel>1</midi-channel>
        <midi-program>1</midi-program>
      </midi-instrument>
    </score-part>
  </part-list>
  <!--=========================== Part 1 ===========================-->
  <part id="P543cb3cb23ff6890a8cd1d26c98fc363">
    <!--========================= Measure 1 ==========================-->
    <measure implicit="no" number="1">
      <attributes>
        <divisions>10080</divisions>
        <key>
          <fifths>3</fifths>
          <mode>major</mode>
        </key>
        <time>
          <beats>3</beats>
          <beat-type>4</beat-type>
        </time>
        <clef>
          <sign>G</sign>
          <line>2</line>
        </clef>
      </attributes>
      <direction>
        <direction-type>
          <metronome parentheses="no">
            <beat-unit>quarter</beat-unit>
            <per-minute>120</per-minute>
          </metronome>
        </direction-type>
        <sound tempo="120" />
      </direction>
      <note dynamics="100.00">
        <pitch>
          <step>E</step>
          <octave>4</octave>
        </pitch>
        <duration>10080</duration>
        <instrument id="Ief7e13bfc9dc5302b938955cb09eb877" />
        <type>quarter</type>
      </note>
      <note dynamics="100.00">
        <pitch>
          <step>C</step>
          <alter>1</alter>
          <octave>5</octave>
        </pitch>
        <duration>7560</duration>
        <instrument id="Ief7e13bfc9dc5302b938955cb09eb877" />
        <type>eighth</type>
        <dot />
        <accidental>sharp</accidental>
        <stem>down</stem>
        <beam number="1">begin</beam>
      </note>
      <note dynamics="100.00">
        <pitch>
          <step>D</step>
          <octave>5</octave>
        </pitch>
        <duration>2520</duration>
        <instrument id="Ief7e13bfc9dc5302b938955cb09eb877" />
        <type>16th</type>
        <stem>down</stem>
        <beam number="1">end</beam>
        <beam number="2">backward hook</beam>
      </note>
      <note>
        <pitch>
          <step>B</step>
          <octave>4</octave>
        </pitch>
        <duration>10080</duration>
        <instrument id="Ief7e13bfc9dc5302b938955cb09eb877" />
        <type>quarter</type>
      </note>
      <note>
        <chord />
        <pitch>
          <step>G</step>
          <alter>1</alter>
          <octave>4</octave>
        </pitch>
        <duration>10080</duration>
        <instrument id="Ief7e13bfc9dc5302b938955cb09eb877" />
        <type>quarter</type>
        <accidental>sharp</accidental>
      </note>
      <note>
        <chord />
        <pitch>
          <step>D</step>
          <octave>4</octave>
        </pitch>
        <duration>10080</duration>
        <instrument id="Ief7e13bfc9dc5302b938955cb09eb877" />
        <type>quarter</type>
      </note>
    </measure>
    <!--========================= Measure 2 ==========================-->
    <measure implicit="no" number="2">
      <note>
        <pitch>
          <step>D</step>
          <octave>4</octave>
        </pitch>
        <duration>10080</duration>
        <instrument id="Ief7e13bfc9dc5302b938955cb09eb877" />
        <type>quarter</type>
      </note>
      <note>
        <chord />
        <pitch>
          <step>G</step>
          <alter>1</alter>
          <octave>4</octave>
        </pitch>
        <duration>10080</duration>
        <instrument id="Ief7e13bfc9dc5302b938955cb09eb877" />
        <type>quarter</type>
        <accidental>sharp</accidental>
      </note>
      <note>
        <chord />
        <pitch>
          <step>B</step>
          <octave>4</octave>
        </pitch>
        <duration>10080</duration>
        <instrument id="Ief7e13bfc9dc5302b938955cb09eb877" />
        <type>quarter</type>
      </note>
      <note>
        <pitch>
          <step>B</step>
          <octave>4</octave>
        </pitch>
        <duration>20160</duration>
        <instrument id="Ief7e13bfc9dc5302b938955cb09eb877" />
        <type>half</type>
      </note>
      <note>
        <chord />
        <pitch>
          <step>G</step>
          <alter>1</alter>
          <octave>4</octave>
        </pitch>
        <duration>20160</duration>
        <instrument id="Ief7e13bfc9dc5302b938955cb09eb877" />
        <type>half</type>
        <accidental>sharp</accidental>
      </note>
      <note>
        <chord />
        <pitch>
          <step>D</step>
          <octave>4</octave>
        </pitch>
        <duration>20160</duration>
        <instrument id="Ief7e13bfc9dc5302b938955cb09eb877" />
        <type>half</type>
      </note>
    </measure>
    <!--========================= Measure 3 ==========================-->
    <measure implicit="no" number="3">
      <note>
        <pitch>
          <step>D</step>
          <octave>5</octave>
        </pitch>
        <duration>10080</duration>
        <instrument id="Ief7e13bfc9dc5302b938955cb09eb877" />
        <type>quarter</type>
      </note>
      <note>
        <chord />
        <pitch>
          <step>F</step>
          <alter>1</alter>
          <octave>5</octave>
        </pitch>
        <duration>10080</duration>
        <instrument id="Ief7e13bfc9dc5302b938955cb09eb877" />
        <type>quarter</type>
        <accidental>sharp</accidental>
      </note>
      <note>
        <pitch>
          <step>C</step>
          <octave>5</octave>
        </pitch>
        <duration>7560</duration>
        <instrument id="Ief7e13bfc9dc5302b938955cb09eb877" />
        <type>eighth</type>
        <dot />
        <stem>down</stem>
        <beam number="1">begin</beam>
      </note>
      <note>
        <chord />
        <pitch>
          <step>E</step>
          <alter>-1</alter>
          <octave>5</octave>
        </pitch>
        <duration>7560</duration>
        <instrument id="Ief7e13bfc9dc5302b938955cb09eb877" />
        <type>eighth</type>
        <dot />
        <accidental>flat</accidental>
      </note>
      <note>
        <pitch>
          <step>C</step>
          <alter>1</alter>
          <octave>5</octave>
        </pitch>
        <duration>2520</duration>
        <instrument id="Ief7e13bfc9dc5302b938955cb09eb877" />
        <type>16th</type>
        <accidental>sharp</accidental>
        <stem>down</stem>
        <beam number="1">end</beam>
        <beam number="2">backward hook</beam>
      </note>
      <note>
        <chord />
        <pitch>
          <step>E</step>
          <octave>5</octave>
        </pitch>
        <duration>2520</duration>
        <instrument id="Ief7e13bfc9dc5302b938955cb09eb877" />
        <type>16th</type>
      </note>
      <note>
        <pitch>
          <step>C</step>
          <alter>1</alter>
          <octave>5</octave>
        </pitch>
        <duration>10080</duration>
        <instrument id="Ief7e13bfc9dc5302b938955cb09eb877" />
        <type>quarter</type>
        <accidental>sharp</accidental>
      </note>
      <note>
        <chord />
        <pitch>
          <step>A</step>
          <octave>5</octave>
        </pitch>
        <duration>10080</duration>
        <instrument id="Ief7e13bfc9dc5302b938955cb09eb877" />
        <type>quarter</type>
      </note>
    </measure>
    <!--========================= Measure 4 ==========================-->
    <measure implicit="no" number="4">
      <note>
        <pitch>
          <step>C</step>
          <alter>1</alter>
          <octave>5</octave>
        </pitch>
        <duration>10080</duration>
        <instrument id="Ief7e13bfc9dc5302b938955cb09eb877" />
        <type>quarter</type>
        <accidental>sharp</accidental>
      </note>
      <note>
        <chord />
        <pitch>
          <step>A</step>
          <octave>5</octave>
        </pitch>
        <duration>10080</duration>
        <instrument id="Ief7e13bfc9dc5302b938955cb09eb877" />
        <type>quarter</type>
      </note>
      <note>
        <pitch>
          <step>A</step>
          <octave>5</octave>
        </pitch>
        <duration>20160</duration>
        <instrument id="Ief7e13bfc9dc5302b938955cb09eb877" />
        <type>half</type>
      </note>
      <note>
        <chord />
        <pitch>
          <step>C</step>
          <alter>1</alter>
          <octave>5</octave>
        </pitch>
        <duration>20160</duration>
        <instrument id="Ief7e13bfc9dc5302b938955cb09eb877" />
        <type>half</type>
        <accidental>sharp</accidental>
      </note>
    </measure>
    <!--========================= Measure 5 ==========================-->
    <measure implicit="no" number="5">
      <note>
        <pitch>
          <step>C</step>
          <alter>1</alter>
          <octave>5</octave>
        </pitch>
        <duration>10080</duration>
        <instrument id="Ief7e13bfc9dc5302b938955cb09eb877" />
        <voice>1</voice>
        <type>quarter</type>
        <accidental>sharp</accidental>
      </note>
      <note>
        <chord />
        <pitch>
          <step>E</step>
          <octave>4</octave>
        </pitch>
        <duration>10080</duration>
        <instrument id="Ief7e13bfc9dc5302b938955cb09eb877" />
        <voice>1</voice>
        <type>quarter</type>
      </note>
      <note>
        <pitch>
          <step>B</step>
          <alter>-1</alter>
          <octave>4</octave>
        </pitch>
        <duration>7560</duration>
        <instrument id="Ief7e13bfc9dc5302b938955cb09eb877" />
        <voice>1</voice>
        <type>eighth</type>
        <dot />
        <accidental>flat</accidental>
        <stem>down</stem>
        <beam number="1">begin</beam>
      </note>
      <note>
        <chord />
        <pitch>
          <step>C</step>
          <alter>1</alter>
          <octave>4</octave>
        </pitch>
        <duration>7560</duration>
        <instrument id="Ief7e13bfc9dc5302b938955cb09eb877" />
        <voice>1</voice>
        <type>eighth</type>
        <dot />
        <accidental>sharp</accidental>
      </note>
      <note dynamics="100.00">
        <pitch>
          <step>B</step>
          <octave>4</octave>
        </pitch>
        <duration>2520</duration>
        <instrument id="Ief7e13bfc9dc5302b938955cb09eb877" />
        <voice>1</voice>
        <type>16th</type>
        <stem>down</stem>
        <beam number="1">end</beam>
        <beam number="2">backward hook</beam>
      </note>
      <note>
        <pitch>
          <step>D</step>
          <octave>5</octave>
        </pitch>
        <duration>10080</duration>
        <instrument id="Ief7e13bfc9dc5302b938955cb09eb877" />
        <voice>1</voice>
        <type>quarter</type>
      </note>
      <note>
        <chord />
        <pitch>
          <step>F</step>
          <alter>1</alter>
          <octave>4</octave>
        </pitch>
        <duration>10080</duration>
        <instrument id="Ief7e13bfc9dc5302b938955cb09eb877" />
        <voice>1</voice>
        <type>quarter</type>
        <accidental>sharp</accidental>
      </note>
      <backup>
        <duration>30240</duration>
      </backup>
      <note>
        <rest />
        <duration>17640</duration>
        <voice>2</voice>
        <type>quarter</type>
        <dot />
        <dot />
      </note>
      <note dynamics="100.00">
        <pitch>
          <step>D</step>
          <octave>4</octave>
        </pitch>
        <duration>10080</duration>
        <tie type="start" />
        <instrument id="Ief7e13bfc9dc5302b938955cb09eb877" />
        <voice>2</voice>
        <type>quarter</type>
        <notations>
          <tied type="start" />
        </notations>
      </note>
      <note dynamics="100.00">
        <pitch>
          <step>D</step>
          <octave>4</octave>
        </pitch>
        <duration>2520</duration>
        <tie type="stop" />
        <tie type="start" />
        <instrument id="Ief7e13bfc9dc5302b938955cb09eb877" />
        <voice>2</voice>
        <type>16th</type>
        <notations>
          <tied type="stop" />
          <tied type="start" />
        </notations>
      </note>
    </measure>
    <!--========================= Measure 6 ==========================-->
    <measure implicit="no" number="6">
      <note>
        <pitch>
          <step>D</step>
          <octave>5</octave>
        </pitch>
        <duration>10080</duration>
        <instrument id="Ief7e13bfc9dc5302b938955cb09eb877" />
        <type>quarter</type>
      </note>
      <note>
        <chord />
        <pitch>
          <step>F</step>
          <alter>1</alter>
          <octave>4</octave>
        </pitch>
        <duration>10080</duration>
        <instrument id="Ief7e13bfc9dc5302b938955cb09eb877" />
        <type>quarter</type>
        <accidental>sharp</accidental>
      </note>
      <note dynamics="100.00">
        <pitch>
          <step>D</step>
          <octave>4</octave>
        </pitch>
        <duration>30240</duration>
        <tie type="stop" />
        <instrument id="Ief7e13bfc9dc5302b938955cb09eb877" />
        <type>half</type>
        <dot />
        <notations>
          <tied type="stop" />
        </notations>
      </note>
      <note>
        <pitch>
          <step>F</step>
          <alter>1</alter>
          <octave>4</octave>
        </pitch>
        <duration>20160</duration>
        <instrument id="Ief7e13bfc9dc5302b938955cb09eb877" />
        <type>half</type>
        <accidental>sharp</accidental>
      </note>
      <note>
        <chord />
        <pitch>
          <step>D</step>
          <octave>5</octave>
        </pitch>
        <duration>20160</duration>
        <instrument id="Ief7e13bfc9dc5302b938955cb09eb877" />
        <type>half</type>
      </note>
    </measure>
    <!--========================= Measure 7 ==========================-->
    <measure implicit="no" number="7">
      <note>
        <pitch>
          <step>D</step>
          <octave>4</octave>
        </pitch>
        <duration>10080</duration>
        <instrument id="Ief7e13bfc9dc5302b938955cb09eb877" />
        <type>quarter</type>
      </note>
      <note>
        <chord />
        <pitch>
          <step>G</step>
          <alter>1</alter>
          <octave>4</octave>
        </pitch>
        <duration>10080</duration>
        <instrument id="Ief7e13bfc9dc5302b938955cb09eb877" />
        <type>quarter</type>
        <accidental>sharp</accidental>
      </note>
      <note>
        <pitch>
          <step>D</step>
          <octave>4</octave>
        </pitch>
        <duration>7560</duration>
        <instrument id="Ief7e13bfc9dc5302b938955cb09eb877" />
        <type>eighth</type>
        <dot />
        <stem>up</stem>
        <beam number="1">begin</beam>
      </note>
      <note>
        <chord />
        <pitch>
          <step>G</step>
          <alter>1</alter>
          <octave>4</octave>
        </pitch>
        <duration>7560</duration>
        <instrument id="Ief7e13bfc9dc5302b938955cb09eb877" />
        <type>eighth</type>
        <dot />
        <accidental>sharp</accidental>
      </note>
      <note>
        <pitch>
          <step>C</step>
          <alter>1</alter>
          <octave>4</octave>
        </pitch>
        <duration>2520</duration>
        <instrument id="Ief7e13bfc9dc5302b938955cb09eb877" />
        <type>16th</type>
        <accidental>sharp</accidental>
        <stem>up</stem>
        <beam number="1">end</beam>
        <beam number="2">backward hook</beam>
      </note>
      <note>
        <chord />
        <pitch>
          <step>A</step>
          <octave>4</octave>
        </pitch>
        <duration>2520</duration>
        <instrument id="Ief7e13bfc9dc5302b938955cb09eb877" />
        <type>16th</type>
      </note>
      <note>
        <pitch>
          <step>C</step>
          <alter>1</alter>
          <octave>4</octave>
        </pitch>
        <duration>10080</duration>
        <instrument id="Ief7e13bfc9dc5302b938955cb09eb877" />
        <type>quarter</type>
        <accidental>sharp</accidental>
      </note>
      <note>
        <chord />
        <pitch>
          <step>C</step>
          <alter>1</alter>
          <octave>5</octave>
        </pitch>
        <duration>10080</duration>
        <instrument id="Ief7e13bfc9dc5302b938955cb09eb877" />
        <type>quarter</type>
        <accidental>sharp</accidental>
      </note>
    </measure>
    <!--========================= Measure 8 ==========================-->
    <measure implicit="no" number="8">
      <note>
        <pitch>
          <step>C</step>
          <alter>1</alter>
          <octave>4</octave>
        </pitch>
        <duration>10080</duration>
        <instrument id="Ief7e13bfc9dc5302b938955cb09eb877" />
        <type>quarter</type>
        <accidental>sharp</accidental>
      </note>
      <note>
        <chord />
        <pitch>
          <step>C</step>
          <alter>1</alter>
          <octave>5</octave>
        </pitch>
        <duration>10080</duration>
        <instrument id="Ief7e13bfc9dc5302b938955cb09eb877" />
        <type>quarter</type>
        <accidental>sharp</accidental>
      </note>
      <note>
        <pitch>
          <step>C</step>
          <alter>1</alter>
          <octave>4</octave>
        </pitch>
        <duration>20160</duration>
        <instrument id="Ief7e13bfc9dc5302b938955cb09eb877" />
        <type>half</type>
        <accidental>sharp</accidental>
      </note>
      <note>
        <chord />
        <pitch>
          <step>C</step>
          <alter>1</alter>
          <octave>5</octave>
        </pitch>
        <duration>20160</duration>
        <instrument id="Ief7e13bfc9dc5302b938955cb09eb877" />
        <type>half</type>
        <accidental>sharp</accidental>
      </note>
    </measure>
    <!--========================= Measure 9 ==========================-->
    <measure implicit="no" number="9">
      <note dynamics="100.00">
        <pitch>
          <step>E</step>
          <octave>4</octave>
        </pitch>
        <duration>20160</duration>
        <instrument id="Ief7e13bfc9dc5302b938955cb09eb877" />
        <voice>1</voice>
        <type>half</type>
      </note>
      <note>
        <pitch>
          <step>D</step>
          <octave>4</octave>
        </pitch>
        <duration>10080</duration>
        <instrument id="Ief7e13bfc9dc5302b938955cb09eb877" />
        <voice>1</voice>
        <type>quarter</type>
      </note>
      <note>
        <chord />
        <pitch>
          <step>G</step>
          <alter>1</alter>
          <octave>4</octave>
        </pitch>
        <duration>10080</duration>
        <instrument id="Ief7e13bfc9dc5302b938955cb09eb877" />
        <voice>1</voice>
        <type>quarter</type>
        <accidental>sharp</accidental>
      </note>
      <note>
        <chord />
        <pitch>
          <step>B</step>
          <octave>4</octave>
        </pitch>
        <duration>10080</duration>
        <instrument id="Ief7e13bfc9dc5302b938955cb09eb877" />
        <voice>1</voice>
        <type>quarter</type>
      </note>
      <backup>
        <duration>30240</duration>
      </backup>
      <note>
        <rest />
        <duration>10080</duration>
        <voice>2</voice>
        <type>quarter</type>
      </note>
      <note>
        <pitch>
          <step>C</step>
          <alter>1</alter>
          <octave>5</octave>
        </pitch>
        <duration>10080</duration>
        <instrument id="Ief7e13bfc9dc5302b938955cb09eb877" />
        <voice>2</voice>
        <type>quarter</type>
        <accidental>sharp</accidental>
      </note>
      <note>
        <chord />
        <pitch>
          <step>G</step>
          <alter>1</alter>
          <octave>4</octave>
        </pitch>
        <duration>10080</duration>
        <instrument id="Ief7e13bfc9dc5302b938955cb09eb877" />
        <voice>2</voice>
        <type>quarter</type>
        <accidental>sharp</accidental>
      </note>
      <note>
        <rest />
        <duration>10080</duration>
        <voice>2</voice>
        <type>quarter</type>
      </note>
      <backup>
        <duration>30240</duration>
      </backup>
      <note>
        <rest />
        <duration>17640</duration>
        <voice>3</voice>
        <type>quarter</type>
        <dot />
        <dot />
      </note>
      <note dynamics="100.00">
        <pitch>
          <step>D</step>
          <octave>5</octave>
        </pitch>
        <duration>2520</duration>
        <instrument id="Ief7e13bfc9dc5302b938955cb09eb877" />
        <voice>3</voice>
        <type>16th</type>
      </note>
      <note>
        <rest />
        <duration>10080</duration>
        <voice>3</voice>
        <type>quarter</type>
      </note>
    </measure>
    <!--========================= Measure 10 =========================-->
    <measure implicit="no" number="10">
      <note>
        <pitch>
          <step>D</step>
          <octave>4</octave>
        </pitch>
        <duration>10080</duration>
        <instrument id="Ief7e13bfc9dc5302b938955cb09eb877" />
        <type>quarter</type>
      </note>
      <note>
        <chord />
        <pitch>
          <step>G</step>
          <alter>1</alter>
          <octave>4</octave>
        </pitch>
        <duration>10080</duration>
        <instrument id="Ief7e13bfc9dc5302b938955cb09eb877" />
        <type>quarter</type>
        <accidental>sharp</accidental>
      </note>
      <note>
        <chord />
        <pitch>
          <step>B</step>
          <octave>4</octave>
        </pitch>
        <duration>10080</duration>
        <instrument id="Ief7e13bfc9dc5302b938955cb09eb877" />
        <type>quarter</type>
      </note>
      <note>
        <pitch>
          <step>B</step>
          <octave>4</octave>
        </pitch>
        <duration>20160</duration>
        <instrument id="Ief7e13bfc9dc5302b938955cb09eb877" />
        <type>half</type>
      </note>
      <note>
        <chord />
        <pitch>
          <step>G</step>
          <alter>1</alter>
          <octave>4</octave>
        </pitch>
        <duration>20160</duration>
        <instrument id="Ief7e13bfc9dc5302b938955cb09eb877" />
        <type>half</type>
        <accidental>sharp</accidental>
      </note>
      <note>
        <chord />
        <pitch>
          <step>D</step>
          <octave>4</octave>
        </pitch>
        <duration>20160</duration>
        <instrument id="Ief7e13bfc9dc5302b938955cb09eb877" />
        <type>half</type>
      </note>
    </measure>
    <!--========================= Measure 11 =========================-->
    <measure implicit="no" number="11">
      <note>
        <pitch>
          <step>D</step>
          <octave>5</octave>
        </pitch>
        <duration>10080</duration>
        <instrument id="Ief7e13bfc9dc5302b938955cb09eb877" />
        <voice>1</voice>
        <type>quarter</type>
      </note>
      <note>
        <chord />
        <pitch>
          <step>F</step>
          <alter>1</alter>
          <octave>5</octave>
        </pitch>
        <duration>10080</duration>
        <instrument id="Ief7e13bfc9dc5302b938955cb09eb877" />
        <voice>1</voice>
        <type>quarter</type>
        <accidental>sharp</accidental>
      </note>
      <note>
        <pitch>
          <step>C</step>
          <octave>5</octave>
        </pitch>
        <duration>7560</duration>
        <instrument id="Ief7e13bfc9dc5302b938955cb09eb877" />
        <voice>1</voice>
        <type>eighth</type>
        <dot />
      </note>
      <note>
        <chord />
        <pitch>
          <step>E</step>
          <alter>-1</alter>
          <octave>5</octave>
        </pitch>
        <duration>7560</duration>
        <instrument id="Ief7e13bfc9dc5302b938955cb09eb877" />
        <voice>1</voice>
        <type>eighth</type>
        <dot />
        <accidental>flat</accidental>
      </note>
      <note>
        <pitch>
          <step>C</step>
          <alter>1</alter>
          <octave>5</octave>
        </pitch>
        <duration>10080</duration>
        <tie type="start" />
        <instrument id="Ief7e13bfc9dc5302b938955cb09eb877" />
        <voice>1</voice>
        <type>quarter</type>
        <accidental>sharp</accidental>
        <notations>
          <tied type="start" />
        </notations>
      </note>
      <note>
        <chord />
        <pitch>
          <step>E</step>
          <octave>5</octave>
        </pitch>
        <duration>10080</duration>
        <tie type="start" />
        <instrument id="Ief7e13bfc9dc5302b938955cb09eb877" />
        <voice>1</voice>
        <type>quarter</type>
        <notations>
          <tied type="start" />
        </notations>
      </note>
      <note>
        <pitch>
          <step>C</step>
          <alter>1</alter>
          <octave>5</octave>
        </pitch>
        <duration>2520</duration>
        <tie type="stop" />
        <tie type="start" />
        <instrument id="Ief7e13bfc9dc5302b938955cb09eb877" />
        <voice>1</voice>
        <type>16th</type>
        <notations>
          <tied type="stop" />
          <tied type="start" />
        </notations>
      </note>
      <note>
        <chord />
        <pitch>
          <step>E</step>
          <octave>5</octave>
        </pitch>
        <duration>2520</duration>
        <tie type="stop" />
        <tie type="start" />
        <instrument id="Ief7e13bfc9dc5302b938955cb09eb877" />
        <voice>1</voice>
        <type>16th</type>
        <notations>
          <tied type="stop" />
          <tied type="start" />
        </notations>
      </note>
      <backup>
        <duration>30240</duration>
      </backup>
      <note>
        <rest />
        <duration>20160</duration>
        <voice>2</voice>
        <type>half</type>
      </note>
      <note>
        <pitch>
          <step>A</step>
          <octave>5</octave>
        </pitch>
        <duration>10080</duration>
        <instrument id="Ief7e13bfc9dc5302b938955cb09eb877" />
        <voice>2</voice>
        <type>quarter</type>
      </note>
      <note>
        <chord />
        <pitch>
          <step>C</step>
          <alter>1</alter>
          <octave>6</octave>
        </pitch>
        <duration>10080</duration>
        <instrument id="Ief7e13bfc9dc5302b938955cb09eb877" />
        <voice>2</voice>
        <type>quarter</type>
        <accidental>sharp</accidental>
      </note>
    </measure>
    <!--========================= Measure 12 =========================-->
    <measure implicit="no" number="12">
      <note>
        <pitch>
          <step>A</step>
          <octave>5</octave>
        </pitch>
        <duration>10080</duration>
        <instrument id="Ief7e13bfc9dc5302b938955cb09eb877" />
        <type>quarter</type>
      </note>
      <note>
        <chord />
        <pitch>
          <step>C</step>
          <alter>1</alter>
          <octave>6</octave>
        </pitch>
        <duration>10080</duration>
        <instrument id="Ief7e13bfc9dc5302b938955cb09eb877" />
        <type>quarter</type>
        <accidental>sharp</accidental>
      </note>
      <note>
        <pitch>
          <step>C</step>
          <alter>1</alter>
          <octave>5</octave>
        </pitch>
        <duration>10080</duration>
        <tie type="stop" />
        <instrument id="Ief7e13bfc9dc5302b938955cb09eb877" />
        <type>quarter</type>
        <notations>
          <tied type="stop" />
        </notations>
      </note>
      <note>
        <chord />
        <pitch>
          <step>E</step>
          <octave>5</octave>
        </pitch>
        <duration>10080</duration>
        <tie type="stop" />
        <instrument id="Ief7e13bfc9dc5302b938955cb09eb877" />
        <type>quarter</type>
        <notations>
          <tied type="stop" />
        </notations>
      </note>
      <note>
        <pitch>
          <step>C</step>
          <alter>1</alter>
          <octave>6</octave>
        </pitch>
        <duration>20160</duration>
        <instrument id="Ief7e13bfc9dc5302b938955cb09eb877" />
        <type>half</type>
        <accidental>sharp</accidental>
      </note>
      <note>
        <chord />
        <pitch>
          <step>B</step>
          <alter>-1</alter>
          <octave>5</octave>
        </pitch>
        <duration>20160</duration>
        <instrument id="Ief7e13bfc9dc5302b938955cb09eb877" />
        <type>half</type>
        <accidental>flat</accidental>
      </note>
      <note>
        <chord />
        <pitch>
          <step>E</step>
          <octave>5</octave>
        </pitch>
        <duration>20160</duration>
        <instrument id="Ief7e13bfc9dc5302b938955cb09eb877" />
        <type>half</type>
      </note>
      <note>
        <chord />
        <pitch>
          <step>C</step>
          <alter>1</alter>
          <octave>5</octave>
        </pitch>
        <duration>20160</duration>
        <instrument id="Ief7e13bfc9dc5302b938955cb09eb877" />
        <type>half</type>
        <accidental>sharp</accidental>
      </note>
      <note>
        <chord />
        <pitch>
          <step>B</step>
          <alter>-1</alter>
          <octave>4</octave>
        </pitch>
        <duration>20160</duration>
        <instrument id="Ief7e13bfc9dc5302b938955cb09eb877" />
        <type>half</type>
        <accidental>flat</accidental>
      </note>
    </measure>
    <!--========================= Measure 13 =========================-->
    <measure implicit="no" number="13">
      <note>
        <pitch>
          <step>B</step>
          <alter>-1</alter>
          <octave>4</octave>
        </pitch>
        <duration>10080</duration>
        <instrument id="Ief7e13bfc9dc5302b938955cb09eb877" />
        <type>quarter</type>
        <accidental>flat</accidental>
      </note>
      <note>
        <chord />
        <pitch>
          <step>C</step>
          <alter>1</alter>
          <octave>5</octave>
        </pitch>
        <duration>10080</duration>
        <instrument id="Ief7e13bfc9dc5302b938955cb09eb877" />
        <type>quarter</type>
        <accidental>sharp</accidental>
      </note>
      <note>
        <pitch>
          <step>B</step>
          <alter>-1</alter>
          <octave>4</octave>
        </pitch>
        <duration>7560</duration>
        <instrument id="Ief7e13bfc9dc5302b938955cb09eb877" />
        <type>eighth</type>
        <dot />
        <accidental>flat</accidental>
        <stem>down</stem>
        <beam number="1">begin</beam>
      </note>
      <note>
        <chord />
        <pitch>
          <step>C</step>
          <alter>1</alter>
          <octave>5</octave>
        </pitch>
        <duration>7560</duration>
        <instrument id="Ief7e13bfc9dc5302b938955cb09eb877" />
        <type>eighth</type>
        <dot />
        <accidental>sharp</accidental>
      </note>
      <note>
        <pitch>
          <step>D</step>
          <octave>5</octave>
        </pitch>
        <duration>2520</duration>
        <instrument id="Ief7e13bfc9dc5302b938955cb09eb877" />
        <type>16th</type>
        <stem>down</stem>
        <beam number="1">end</beam>
        <beam number="2">backward hook</beam>
      </note>
      <note>
        <chord />
        <pitch>
          <step>B</step>
          <octave>4</octave>
        </pitch>
        <duration>2520</duration>
        <instrument id="Ief7e13bfc9dc5302b938955cb09eb877" />
        <type>16th</type>
      </note>
      <note>
        <pitch>
          <step>B</step>
          <octave>4</octave>
        </pitch>
        <duration>10080</duration>
        <instrument id="Ief7e13bfc9dc5302b938955cb09eb877" />
        <type>quarter</type>
      </note>
      <note>
        <chord />
        <pitch>
          <step>F</step>
          <alter>1</alter>
          <octave>5</octave>
        </pitch>
        <duration>10080</duration>
        <instrument id="Ief7e13bfc9dc5302b938955cb09eb877" />
        <type>quarter</type>
        <accidental>sharp</accidental>
      </note>
    </measure>
    <!--========================= Measure 14 =========================-->
    <measure implicit="no" number="14">
      <note>
        <pitch>
          <step>A</step>
          <octave>4</octave>
        </pitch>
        <duration>10080</duration>
        <instrument id="Ief7e13bfc9dc5302b938955cb09eb877" />
        <type>quarter</type>
      </note>
      <note>
        <chord />
        <pitch>
          <step>F</step>
          <alter>1</alter>
          <octave>5</octave>
        </pitch>
        <duration>10080</duration>
        <instrument id="Ief7e13bfc9dc5302b938955cb09eb877" />
        <type>quarter</type>
        <accidental>sharp</accidental>
      </note>
      <note>
        <pitch>
          <step>G</step>
          <alter>1</alter>
          <octave>4</octave>
        </pitch>
        <duration>20160</duration>
        <instrument id="Ief7e13bfc9dc5302b938955cb09eb877" />
        <type>half</type>
        <accidental>sharp</accidental>
      </note>
      <note>
        <chord />
        <pitch>
          <step>F</step>
          <alter>1</alter>
          <octave>5</octave>
        </pitch>
        <duration>20160</duration>
        <instrument id="Ief7e13bfc9dc5302b938955cb09eb877" />
        <type>half</type>
        <accidental>sharp</accidental>
      </note>
    </measure>
    <!--========================= Measure 15 =========================-->
    <measure implicit="no" number="15">
      <note>
        <pitch>
          <step>G</step>
          <alter>1</alter>
          <octave>4</octave>
        </pitch>
        <duration>10080</duration>
        <instrument id="Ief7e13bfc9dc5302b938955cb09eb877" />
        <voice>1</voice>
        <type>quarter</type>
        <accidental>sharp</accidental>
      </note>
      <note>
        <chord />
        <pitch>
          <step>D</step>
          <octave>4</octave>
        </pitch>
        <duration>10080</duration>
        <instrument id="Ief7e13bfc9dc5302b938955cb09eb877" />
        <voice>1</voice>
        <type>quarter</type>
      </note>
      <note>
        <pitch>
          <step>D</step>
          <octave>4</octave>
        </pitch>
        <duration>7560</duration>
        <instrument id="Ief7e13bfc9dc5302b938955cb09eb877" />
        <voice>1</voice>
        <type>eighth</type>
        <dot />
        <stem>up</stem>
        <beam number="1">begin</beam>
      </note>
      <note>
        <chord />
        <pitch>
          <step>B</step>
          <octave>4</octave>
        </pitch>
        <duration>7560</duration>
        <instrument id="Ief7e13bfc9dc5302b938955cb09eb877" />
        <voice>1</voice>
        <type>eighth</type>
        <dot />
      </note>
      <note>
        <pitch>
          <step>C</step>
          <alter>1</alter>
          <octave>4</octave>
        </pitch>
        <duration>2520</duration>
        <instrument id="Ief7e13bfc9dc5302b938955cb09eb877" />
        <voice>1</voice>
        <type>16th</type>
        <accidental>sharp</accidental>
        <stem>up</stem>
        <beam number="1">end</beam>
        <beam number="2">backward hook</beam>
      </note>
      <note>
        <chord />
        <pitch>
          <step>A</step>
          <octave>4</octave>
        </pitch>
        <duration>2520</duration>
        <instrument id="Ief7e13bfc9dc5302b938955cb09eb877" />
        <voice>1</voice>
        <type>16th</type>
      </note>
      <note>
        <chord />
        <pitch>
          <step>A</step>
          <octave>4</octave>
        </pitch>
        <duration>2520</duration>
        <instrument id="Ief7e13bfc9dc5302b938955cb09eb877" />
        <voice>1</voice>
        <type>16th</type>
      </note>
      <note>
        <pitch>
          <step>C</step>
          <alter>1</alter>
          <octave>5</octave>
        </pitch>
        <duration>10080</duration>
        <instrument id="Ief7e13bfc9dc5302b938955cb09eb877" />
        <voice>1</voice>
        <type>quarter</type>
        <accidental>sharp</accidental>
      </note>
      <note>
        <chord />
        <pitch>
          <step>A</step>
          <octave>5</octave>
        </pitch>
        <duration>10080</duration>
        <instrument id="Ief7e13bfc9dc5302b938955cb09eb877" />
        <voice>1</voice>
        <type>quarter</type>
      </note>
      <backup>
        <duration>30240</duration>
      </backup>
      <note>
        <rest />
        <duration>20160</duration>
        <voice>2</voice>
        <type>half</type>
      </note>
      <note dynamics="100.00">
        <pitch>
          <step>A</step>
          <octave>4</octave>
        </pitch>
        <duration>10080</duration>
        <tie type="start" />
        <instrument id="Ief7e13bfc9dc5302b938955cb09eb877" />
        <voice>2</voice>
        <type>quarter</type>
        <notations>
          <tied type="start" />
        </notations>
      </note>
    </measure>
    <!--========================= Measure 16 =========================-->
    <measure implicit="no" number="16">
      <note>
        <pitch>
          <step>C</step>
          <alter>1</alter>
          <octave>5</octave>
        </pitch>
        <duration>10080</duration>
        <instrument id="Ief7e13bfc9dc5302b938955cb09eb877" />
        <type>quarter</type>
        <accidental>sharp</accidental>
      </note>
      <note>
        <chord />
        <pitch>
          <step>A</step>
          <octave>5</octave>
        </pitch>
        <duration>10080</duration>
        <instrument id="Ief7e13bfc9dc5302b938955cb09eb877" />
        <type>quarter</type>
      </note>
      <note dynamics="100.00">
        <pitch>
          <step>A</step>
          <octave>4</octave>
        </pitch>
        <duration>30240</duration>
        <tie type="stop" />
        <instrument id="Ief7e13bfc9dc5302b938955cb09eb877" />
        <type>half</type>
        <dot />
        <notations>
          <tied type="stop" />
        </notations>
      </note>
      <note>
        <pitch>
          <step>C</step>
          <alter>1</alter>
          <octave>5</octave>
        </pitch>
        <duration>20160</duration>
        <instrument id="Ief7e13bfc9dc5302b938955cb09eb877" />
        <type>half</type>
        <accidental>sharp</accidental>
      </note>
      <note>
        <chord />
        <pitch>
          <step>A</step>
          <octave>5</octave>
        </pitch>
        <duration>20160</duration>
        <instrument id="Ief7e13bfc9dc5302b938955cb09eb877" />
        <type>half</type>
      </note>
      <barline location="right">
        <bar-style>light-heavy</bar-style>
      </barline>
    </measure>
  </part>
  <!--=========================== Part 2 ===========================-->
  <part id="P1e10a246d948fcae17f14b6e910bb0ee">
    <!--========================= Measure 1 ==========================-->
    <measure implicit="no" number="1">
      <attributes>
        <divisions>10080</divisions>
        <key>
          <fifths>3</fifths>
          <mode>major</mode>
        </key>
        <time>
          <beats>3</beats>
          <beat-type>4</beat-type>
        </time>
        <clef>
          <sign>F</sign>
          <line>4</line>
        </clef>
      </attributes>
      <direction>
        <direction-type>
          <words />
        </direction-type>
        <sound tempo="120" />
      </direction>
      <note>
        <rest />
        <duration>10080</duration>
        <type>quarter</type>
      </note>
      <note dynamics="76.67">
        <pitch>
          <step>E</step>
          <octave>2</octave>
        </pitch>
        <duration>10080</duration>
        <instrument id="I1c927a478964d3a811dd37cbd07598ac" />
        <type>quarter</type>
      </note>
      <note>
        <pitch>
          <step>E</step>
          <octave>3</octave>
        </pitch>
        <duration>10080</duration>
        <instrument id="I1c927a478964d3a811dd37cbd07598ac" />
        <type>quarter</type>
      </note>
      <note>
        <chord />
        <pitch>
          <step>E</step>
          <octave>4</octave>
        </pitch>
        <duration>10080</duration>
        <instrument id="I1c927a478964d3a811dd37cbd07598ac" />
        <type>quarter</type>
      </note>
    </measure>
    <!--========================= Measure 2 ==========================-->
    <measure implicit="no" number="2">
      <note>
        <pitch>
          <step>E</step>
          <octave>3</octave>
        </pitch>
        <duration>10080</duration>
        <instrument id="I1c927a478964d3a811dd37cbd07598ac" />
        <type>quarter</type>
      </note>
      <note>
        <chord />
        <pitch>
          <step>E</step>
          <octave>4</octave>
        </pitch>
        <duration>10080</duration>
        <instrument id="I1c927a478964d3a811dd37cbd07598ac" />
        <type>quarter</type>
      </note>
      <note>
        <pitch>
          <step>E</step>
          <octave>4</octave>
        </pitch>
        <duration>20160</duration>
        <instrument id="I1c927a478964d3a811dd37cbd07598ac" />
        <type>half</type>
      </note>
      <note>
        <chord />
        <pitch>
          <step>E</step>
          <octave>3</octave>
        </pitch>
        <duration>20160</duration>
        <instrument id="I1c927a478964d3a811dd37cbd07598ac" />
        <type>half</type>
      </note>
    </measure>
    <!--========================= Measure 3 ==========================-->
    <measure implicit="no" number="3">
      <note>
        <rest />
        <duration>10080</duration>
        <type>quarter</type>
      </note>
      <note dynamics="76.67">
        <pitch>
          <step>A</step>
          <octave>2</octave>
        </pitch>
        <duration>10080</duration>
        <instrument id="I1c927a478964d3a811dd37cbd07598ac" />
        <type>quarter</type>
      </note>
      <note>
        <pitch>
          <step>A</step>
          <octave>3</octave>
        </pitch>
        <duration>10080</duration>
        <instrument id="I1c927a478964d3a811dd37cbd07598ac" />
        <type>quarter</type>
      </note>
      <note>
        <chord />
        <pitch>
          <step>E</step>
          <octave>4</octave>
        </pitch>
        <duration>10080</duration>
        <instrument id="I1c927a478964d3a811dd37cbd07598ac" />
        <type>quarter</type>
      </note>
    </measure>
    <!--========================= Measure 4 ==========================-->
    <measure implicit="no" number="4">
      <note>
        <pitch>
          <step>A</step>
          <octave>3</octave>
        </pitch>
        <duration>10080</duration>
        <instrument id="I1c927a478964d3a811dd37cbd07598ac" />
        <type>quarter</type>
      </note>
      <note>
        <chord />
        <pitch>
          <step>E</step>
          <octave>4</octave>
        </pitch>
        <duration>10080</duration>
        <instrument id="I1c927a478964d3a811dd37cbd07598ac" />
        <type>quarter</type>
      </note>
      <note>
        <pitch>
          <step>A</step>
          <octave>3</octave>
        </pitch>
        <duration>20160</duration>
        <instrument id="I1c927a478964d3a811dd37cbd07598ac" />
        <type>half</type>
      </note>
      <note>
        <chord />
        <pitch>
          <step>E</step>
          <octave>4</octave>
        </pitch>
        <duration>20160</duration>
        <instrument id="I1c927a478964d3a811dd37cbd07598ac" />
        <type>half</type>
      </note>
    </measure>
    <!--========================= Measure 5 ==========================-->
    <measure implicit="no" number="5">
      <note>
        <rest />
        <duration>10080</duration>
        <type>quarter</type>
      </note>
      <note dynamics="76.67">
        <pitch>
          <step>E</step>
          <octave>2</octave>
        </pitch>
        <duration>10080</duration>
        <instrument id="I1c927a478964d3a811dd37cbd07598ac" />
        <type>quarter</type>
      </note>
      <note>
        <pitch>
          <step>E</step>
          <octave>3</octave>
        </pitch>
        <duration>10080</duration>
        <instrument id="I1c927a478964d3a811dd37cbd07598ac" />
        <type>quarter</type>
      </note>
      <note>
        <chord />
        <pitch>
          <step>B</step>
          <octave>3</octave>
        </pitch>
        <duration>10080</duration>
        <instrument id="I1c927a478964d3a811dd37cbd07598ac" />
        <type>quarter</type>
      </note>
    </measure>
    <!--========================= Measure 6 ==========================-->
    <measure implicit="no" number="6">
      <note>
        <pitch>
          <step>E</step>
          <octave>3</octave>
        </pitch>
        <duration>10080</duration>
        <instrument id="I1c927a478964d3a811dd37cbd07598ac" />
        <type>quarter</type>
      </note>
      <note>
        <chord />
        <pitch>
          <step>B</step>
          <octave>3</octave>
        </pitch>
        <duration>10080</duration>
        <instrument id="I1c927a478964d3a811dd37cbd07598ac" />
        <type>quarter</type>
      </note>
      <note>
        <pitch>
          <step>E</step>
          <octave>3</octave>
        </pitch>
        <duration>20160</duration>
        <instrument id="I1c927a478964d3a811dd37cbd07598ac" />
        <type>half</type>
      </note>
      <note>
        <chord />
        <pitch>
          <step>B</step>
          <octave>3</octave>
        </pitch>
        <duration>20160</duration>
        <instrument id="I1c927a478964d3a811dd37cbd07598ac" />
        <type>half</type>
      </note>
    </measure>
    <!--========================= Measure 7 ==========================-->
    <measure implicit="no" number="7">
      <note>
        <rest />
        <duration>10080</duration>
        <type>quarter</type>
      </note>
      <note dynamics="76.67">
        <pitch>
          <step>A</step>
          <octave>1</octave>
        </pitch>
        <duration>10080</duration>
        <instrument id="I1c927a478964d3a811dd37cbd07598ac" />
        <type>quarter</type>
      </note>
      <note>
        <pitch>
          <step>E</step>
          <octave>4</octave>
        </pitch>
        <duration>10080</duration>
        <instrument id="I1c927a478964d3a811dd37cbd07598ac" />
        <type>quarter</type>
      </note>
      <note>
        <chord />
        <pitch>
          <step>A</step>
          <octave>3</octave>
        </pitch>
        <duration>10080</duration>
        <instrument id="I1c927a478964d3a811dd37cbd07598ac" />
        <type>quarter</type>
      </note>
      <note>
        <chord />
        <pitch>
          <step>E</step>
          <octave>3</octave>
        </pitch>
        <duration>10080</duration>
        <instrument id="I1c927a478964d3a811dd37cbd07598ac" />
        <type>quarter</type>
      </note>
    </measure>
    <!--========================= Measure 8 ==========================-->
    <measure implicit="no" number="8">
      <note>
        <pitch>
          <step>E</step>
          <octave>3</octave>
        </pitch>
        <duration>10080</duration>
        <instrument id="I1c927a478964d3a811dd37cbd07598ac" />
        <type>quarter</type>
      </note>
      <note>
        <chord />
        <pitch>
          <step>A</step>
          <octave>3</octave>
        </pitch>
        <duration>10080</duration>
        <instrument id="I1c927a478964d3a811dd37cbd07598ac" />
        <type>quarter</type>
      </note>
      <note>
        <chord />
        <pitch>
          <step>E</step>
          <octave>4</octave>
        </pitch>
        <duration>10080</duration>
        <instrument id="I1c927a478964d3a811dd37cbd07598ac" />
        <type>quarter</type>
      </note>
      <note>
        <pitch>
          <step>E</step>
          <octave>3</octave>
        </pitch>
        <duration>20160</duration>
        <instrument id="I1c927a478964d3a811dd37cbd07598ac" />
        <type>half</type>
      </note>
      <note>
        <chord />
        <pitch>
          <step>A</step>
          <octave>3</octave>
        </pitch>
        <duration>20160</duration>
        <instrument id="I1c927a478964d3a811dd37cbd07598ac" />
        <type>half</type>
      </note>
      <note>
        <chord />
        <pitch>
          <step>E</step>
          <octave>4</octave>
        </pitch>
        <duration>20160</duration>
        <instrument id="I1c927a478964d3a811dd37cbd07598ac" />
        <type>half</type>
      </note>
    </measure>
    <!--========================= Measure 9 ==========================-->
    <measure implicit="no" number="9">
      <note>
        <rest />
        <duration>10080</duration>
        <type>quarter</type>
      </note>
      <note dynamics="76.67">
        <pitch>
          <step>E</step>
          <octave>2</octave>
        </pitch>
        <duration>10080</duration>
        <instrument id="I1c927a478964d3a811dd37cbd07598ac" />
        <type>quarter</type>
      </note>
      <note>
        <pitch>
          <step>E</step>
          <octave>4</octave>
        </pitch>
        <duration>10080</duration>
        <instrument id="I1c927a478964d3a811dd37cbd07598ac" />
        <type>quarter</type>
      </note>
      <note>
        <chord />
        <pitch>
          <step>E</step>
          <octave>3</octave>
        </pitch>
        <duration>10080</duration>
        <instrument id="I1c927a478964d3a811dd37cbd07598ac" />
        <type>quarter</type>
      </note>
    </measure>
    <!--========================= Measure 10 =========================-->
    <measure implicit="no" number="10">
      <note>
        <pitch>
          <step>E</step>
          <octave>3</octave>
        </pitch>
        <duration>10080</duration>
        <instrument id="I1c927a478964d3a811dd37cbd07598ac" />
        <type>quarter</type>
      </note>
      <note>
        <chord />
        <pitch>
          <step>E</step>
          <octave>4</octave>
        </pitch>
        <duration>10080</duration>
        <instrument id="I1c927a478964d3a811dd37cbd07598ac" />
        <type>quarter</type>
      </note>
      <note>
        <pitch>
          <step>E</step>
          <octave>3</octave>
        </pitch>
        <duration>20160</duration>
        <instrument id="I1c927a478964d3a811dd37cbd07598ac" />
        <type>half</type>
      </note>
      <note>
        <chord />
        <pitch>
          <step>E</step>
          <octave>4</octave>
        </pitch>
        <duration>20160</duration>
        <instrument id="I1c927a478964d3a811dd37cbd07598ac" />
        <type>half</type>
      </note>
    </measure>
    <!--========================= Measure 11 =========================-->
    <measure implicit="no" number="11">
      <note>
        <rest />
        <duration>10080</duration>
        <type>quarter</type>
      </note>
      <note dynamics="76.67">
        <pitch>
          <step>A</step>
          <octave>2</octave>
        </pitch>
        <duration>10080</duration>
        <instrument id="I1c927a478964d3a811dd37cbd07598ac" />
        <type>quarter</type>
      </note>
      <note>
        <pitch>
          <step>A</step>
          <octave>4</octave>
        </pitch>
        <duration>10080</duration>
        <instrument id="I1c927a478964d3a811dd37cbd07598ac" />
        <type>quarter</type>
      </note>
      <note>
        <chord />
        <pitch>
          <step>E</step>
          <octave>4</octave>
        </pitch>
        <duration>10080</duration>
        <instrument id="I1c927a478964d3a811dd37cbd07598ac" />
        <type>quarter</type>
      </note>
      <note>
        <chord />
        <pitch>
          <step>A</step>
          <octave>3</octave>
        </pitch>
        <duration>10080</duration>
        <instrument id="I1c927a478964d3a811dd37cbd07598ac" />
        <type>quarter</type>
      </note>
    </measure>
    <!--========================= Measure 12 =========================-->
    <measure implicit="no" number="12">
      <note>
        <pitch>
          <step>A</step>
          <octave>3</octave>
        </pitch>
        <duration>10080</duration>
        <instrument id="I1c927a478964d3a811dd37cbd07598ac" />
        <type>quarter</type>
      </note>
      <note>
        <chord />
        <pitch>
          <step>E</step>
          <octave>4</octave>
        </pitch>
        <duration>10080</duration>
        <instrument id="I1c927a478964d3a811dd37cbd07598ac" />
        <type>quarter</type>
      </note>
      <note>
        <chord />
        <pitch>
          <step>A</step>
          <octave>4</octave>
        </pitch>
        <duration>10080</duration>
        <instrument id="I1c927a478964d3a811dd37cbd07598ac" />
        <type>quarter</type>
      </note>
      <note>
        <pitch>
          <step>F</step>
          <alter>1</alter>
          <octave>4</octave>
        </pitch>
        <duration>20160</duration>
        <instrument id="I1c927a478964d3a811dd37cbd07598ac" />
        <type>half</type>
      </note>
      <note>
        <chord />
        <pitch>
          <step>E</step>
          <octave>4</octave>
        </pitch>
        <duration>20160</duration>
        <instrument id="I1c927a478964d3a811dd37cbd07598ac" />
        <type>half</type>
      </note>
      <note>
        <chord />
        <pitch>
          <step>C</step>
          <alter>1</alter>
          <octave>4</octave>
        </pitch>
        <duration>20160</duration>
        <instrument id="I1c927a478964d3a811dd37cbd07598ac" />
        <type>half</type>
      </note>
      <note>
        <chord />
        <pitch>
          <step>F</step>
          <alter>1</alter>
          <octave>3</octave>
        </pitch>
        <duration>20160</duration>
        <instrument id="I1c927a478964d3a811dd37cbd07598ac" />
        <type>half</type>
      </note>
    </measure>
    <!--========================= Measure 13 =========================-->
    <measure implicit="no" number="13">
      <note>
        <rest />
        <duration>10080</duration>
        <type>quarter</type>
      </note>
      <note dynamics="108.89">
        <pitch>
          <step>B</step>
          <octave>1</octave>
        </pitch>
        <duration>10080</duration>
        <instrument id="I1c927a478964d3a811dd37cbd07598ac" />
        <type>quarter</type>
      </note>
      <note>
        <pitch>
          <step>F</step>
          <alter>1</alter>
          <octave>3</octave>
        </pitch>
        <duration>10080</duration>
        <instrument id="I1c927a478964d3a811dd37cbd07598ac" />
        <type>quarter</type>
      </note>
      <note>
        <chord />
        <pitch>
          <step>D</step>
          <octave>4</octave>
        </pitch>
        <duration>10080</duration>
        <instrument id="I1c927a478964d3a811dd37cbd07598ac" />
        <type>quarter</type>
      </note>
    </measure>
    <!--========================= Measure 14 =========================-->
    <measure implicit="no" number="14">
      <note>
        <pitch>
          <step>F</step>
          <alter>1</alter>
          <octave>3</octave>
        </pitch>
        <duration>10080</duration>
        <instrument id="I1c927a478964d3a811dd37cbd07598ac" />
        <type>quarter</type>
      </note>
      <note>
        <chord />
        <pitch>
          <step>B</step>
          <octave>3</octave>
        </pitch>
        <duration>10080</duration>
        <instrument id="I1c927a478964d3a811dd37cbd07598ac" />
        <type>quarter</type>
      </note>
      <note>
        <chord />
        <pitch>
          <step>D</step>
          <octave>4</octave>
        </pitch>
        <duration>10080</duration>
        <instrument id="I1c927a478964d3a811dd37cbd07598ac" />
        <type>quarter</type>
      </note>
      <note>
        <pitch>
          <step>D</step>
          <octave>4</octave>
        </pitch>
        <duration>20160</duration>
        <instrument id="I1c927a478964d3a811dd37cbd07598ac" />
        <type>half</type>
      </note>
      <note>
        <chord />
        <pitch>
          <step>B</step>
          <octave>3</octave>
        </pitch>
        <duration>20160</duration>
        <instrument id="I1c927a478964d3a811dd37cbd07598ac" />
        <type>half</type>
      </note>
      <note>
        <chord />
        <pitch>
          <step>E</step>
          <octave>3</octave>
        </pitch>
        <duration>20160</duration>
        <instrument id="I1c927a478964d3a811dd37cbd07598ac" />
        <type>half</type>
      </note>
    </measure>
    <!--========================= Measure 15 =========================-->
    <measure implicit="no" number="15">
      <note>
        <rest />
        <duration>10080</duration>
        <type>quarter</type>
      </note>
      <note dynamics="108.89">
        <pitch>
          <step>A</step>
          <octave>1</octave>
        </pitch>
        <duration>10080</duration>
        <instrument id="I1c927a478964d3a811dd37cbd07598ac" />
        <type>quarter</type>
      </note>
      <note>
        <pitch>
          <step>E</step>
          <octave>3</octave>
        </pitch>
        <duration>10080</duration>
        <instrument id="I1c927a478964d3a811dd37cbd07598ac" />
        <type>quarter</type>
      </note>
      <note>
        <chord />
        <pitch>
          <step>A</step>
          <octave>3</octave>
        </pitch>
        <duration>10080</duration>
        <instrument id="I1c927a478964d3a811dd37cbd07598ac" />
        <type>quarter</type>
      </note>
      <note>
        <chord />
        <pitch>
          <step>E</step>
          <octave>4</octave>
        </pitch>
        <duration>10080</duration>
        <instrument id="I1c927a478964d3a811dd37cbd07598ac" />
        <type>quarter</type>
      </note>
    </measure>
    <!--========================= Measure 16 =========================-->
    <measure implicit="no" number="16">
      <note>
        <pitch>
          <step>A</step>
          <octave>3</octave>
        </pitch>
        <duration>10080</duration>
        <instrument id="I1c927a478964d3a811dd37cbd07598ac" />
        <type>quarter</type>
      </note>
      <note>
        <chord />
        <pitch>
          <step>E</step>
          <octave>4</octave>
        </pitch>
        <duration>10080</duration>
        <instrument id="I1c927a478964d3a811dd37cbd07598ac" />
        <type>quarter</type>
      </note>
      <note>
        <pitch>
          <step>A</step>
          <octave>3</octave>
        </pitch>
        <duration>20160</duration>
        <instrument id="I1c927a478964d3a811dd37cbd07598ac" />
        <type>half</type>
      </note>
      <note>
        <chord />
        <pitch>
          <step>E</step>
          <octave>4</octave>
        </pitch>
        <duration>20160</duration>
        <instrument id="I1c927a478964d3a811dd37cbd07598ac" />
        <type>half</type>
      </note>
      <barline location="right">
        <bar-style>light-heavy</bar-style>
      </barline>
    </measure>
  </part>
</score-partwise>